<svg width="1920" height="1040" viewBox="0 0 1920 1040" fill="none" xmlns="http://www.w3.org/2000/svg">
<g clip-path="url(#clip0_153_2193)">
<rect width="1920" height="1040" rx="4" fill="#0E0F11"/>
<path d="M1844.07 810.624C1860.05 784.096 1858.35 749.76 1846.68 721.075C1835.01 692.391 1814.55 668.259 1793.73 645.333C1766.21 615.023 1736.57 585.214 1699.48 567.892C1647.78 543.752 1587.74 546.623 1531.29 554.942C1431.06 569.717 1333.68 599.989 1238.98 635.994C1137.46 674.589 1033.95 720.717 925.522 714.546C828.221 709.012 761.845 661.423 691.59 600.092C626.066 542.891 571.865 469.1 490.554 431.676C383.862 382.569 252.536 407.825 157.6 476.978C62.6644 546.13 0.858437 653.246 -34.4766 765.257" stroke="#0ABAB5" stroke-opacity="0.1" stroke-width="0.864782" stroke-miterlimit="10"/>
<path d="M1853.3 798.879C1867.82 775.976 1863.57 745.31 1850.01 718.403C1836.48 691.573 1815.26 668.068 1793.45 646.496C1764.75 618.097 1734.27 589.442 1696.2 573.227C1642.09 550.177 1579.39 552.326 1520.8 559.568C1420.96 571.904 1324.15 600.369 1230.23 634.143C1130.33 670.07 1028.85 714.464 922.284 707.623C825.078 701.384 757.418 655.377 686.449 597.26C620.051 543.137 564.87 474.296 484.272 440.099C378.872 395.376 250.301 421.882 155.681 489.819C60.6671 557.904 -2.70853 660.246 -40.1709 769.382" stroke="#0ABAB5" stroke-opacity="0.1" stroke-width="0.864782" stroke-miterlimit="10"/>
<path d="M1862.52 787.136C1875.58 767.856 1868.85 740.939 1853.34 715.735C1838.01 690.825 1815.98 667.883 1793.17 647.668C1763.3 621.189 1731.93 593.702 1692.91 578.568C1636.35 556.633 1571.08 558.064 1510.31 564.195C1410.91 574.222 1314.64 600.75 1221.49 632.293C1123.21 665.569 1023.74 708.194 919.045 700.697C821.934 693.74 753.111 649.164 681.304 594.428C614.158 543.242 557.908 479.503 477.989 448.522C373.925 408.184 248.065 435.939 153.761 502.666C58.6648 569.682 -6.28039 667.247 -45.8701 773.511" stroke="#0ABAB5" stroke-opacity="0.1" stroke-width="0.864782" stroke-miterlimit="10"/>
<path d="M1871.75 775.393C1883.34 759.736 1874.2 736.642 1856.66 713.063C1839.6 690.121 1816.71 667.701 1792.89 648.836C1761.88 624.276 1729.57 597.983 1689.63 583.904C1630.59 563.102 1562.8 563.828 1499.82 568.818C1400.91 576.653 1305.16 601.13 1212.74 630.438C1116.13 661.077 1018.63 701.908 915.811 693.77C818.791 686.091 748.74 643.038 676.167 591.592C608.2 543.411 550.99 484.7 471.711 456.941C369.022 420.979 245.834 449.997 151.845 515.504C56.6717 581.448 -9.84297 674.239 -51.5601 777.628" stroke="#0ABAB5" stroke-opacity="0.1" stroke-width="0.864782" stroke-miterlimit="10"/>
<path d="M1880.97 763.649C1891.11 751.615 1879.64 732.391 1859.99 710.391C1841.28 689.442 1817.47 667.52 1792.61 650.003C1760.48 627.363 1727.19 602.285 1686.34 589.244C1624.8 569.6 1554.54 569.63 1489.33 573.444C1390.94 579.199 1295.7 601.524 1204 628.583C1109.06 656.597 1013.52 695.599 912.572 686.839C815.639 678.429 744.351 636.902 671.026 588.755C602.228 543.579 544.102 489.902 465.428 465.355C364.162 433.76 243.599 464.045 149.925 528.337C54.6739 593.222 -13.4104 681.235 -57.2549 781.753" stroke="#0ABAB5" stroke-opacity="0.1" stroke-width="0.864782" stroke-miterlimit="10"/>
<path d="M1890.19 751.905C1898.87 743.499 1885.17 728.167 1863.32 707.723C1843.07 688.772 1818.24 667.338 1792.33 651.171C1759.11 630.442 1724.8 606.609 1683.06 594.58C1619 576.121 1546.3 575.464 1478.85 578.067C1380.99 581.846 1286.26 601.917 1195.25 626.728C1102.02 652.144 1008.4 689.273 909.334 679.912C812.483 670.763 739.958 630.775 665.885 585.923C596.248 543.756 537.253 495.099 459.15 473.778C359.35 446.533 241.506 478.31 148.01 541.184C52.8148 605.199 -16.9774 688.231 -62.9492 785.874" stroke="#0ABAB5" stroke-opacity="0.1" stroke-width="0.864782" stroke-miterlimit="10"/>
<path d="M1899.41 740.161C1906.63 735.379 1890.8 723.942 1866.65 705.051C1844.95 688.075 1819.03 667.148 1792.05 652.338C1757.75 633.516 1722.4 610.954 1679.77 599.92C1613.17 582.676 1538.08 581.335 1468.35 582.697C1371.06 584.596 1276.85 602.332 1186.5 624.882C1095 647.716 1003.29 682.939 906.095 672.994C809.326 663.092 735.551 624.657 660.743 583.095C590.259 543.938 530.447 500.292 452.867 482.205C354.58 459.289 239.292 492.406 146.09 554.03C50.8386 617.008 -20.5449 695.227 -68.644 789.999" stroke="#0ABAB5" stroke-opacity="0.1" stroke-width="0.864782" stroke-miterlimit="10"/>
<path d="M1908.64 728.418C1914.39 727.259 1896.52 719.692 1869.98 702.383C1846.92 687.34 1819.84 666.957 1791.77 653.51C1756.42 636.582 1719.98 615.326 1676.49 605.26C1607.33 589.257 1529.88 587.246 1457.86 587.324C1361.15 587.428 1267.47 602.756 1177.75 623.031C1088 643.31 998.173 676.583 902.852 666.067C806.165 655.4 731.137 618.534 655.598 580.263C584.262 544.119 523.676 505.468 446.58 490.628C349.859 472.01 237.07 506.497 144.166 566.876C48.8541 628.821 -24.1206 702.232 -74.3472 794.128" stroke="#0ABAB5" stroke-opacity="0.1" stroke-width="0.864782" stroke-miterlimit="10"/>
<path d="M1917.86 716.674C1922.15 719.139 1902.32 715.39 1873.31 699.711C1848.95 686.549 1820.66 666.746 1791.49 654.673C1755.11 639.622 1717.56 619.706 1673.2 610.591C1601.47 595.855 1521.68 593.187 1447.38 591.942C1351.26 590.334 1258.11 603.189 1169.01 621.167C1081.04 638.921 993.066 670.196 899.627 659.131C803.018 647.69 726.726 612.407 650.47 577.418C578.269 544.293 516.965 510.609 440.315 499.034C345.202 484.675 234.864 520.567 142.263 579.701C46.8779 640.616 -27.6793 709.224 -80.0332 798.245" stroke="#0ABAB5" stroke-opacity="0.1" stroke-width="0.864782" stroke-miterlimit="10"/>
<path d="M1927.08 704.93C1929.92 711.023 1908.17 711.018 1876.64 697.044C1851.04 685.698 1821.49 666.53 1791.2 655.845C1753.81 642.653 1715.13 624.116 1669.92 615.936C1595.61 602.493 1513.49 599.18 1436.88 596.573C1341.37 593.322 1248.77 603.651 1160.26 619.321C1074.09 634.576 987.943 663.806 896.384 652.209C799.853 639.981 722.295 606.302 645.325 574.59C572.255 544.483 510.276 515.742 434.028 507.462C340.571 497.313 232.638 534.655 140.335 592.552C44.8935 652.416 -31.2506 716.22 -85.7275 802.37" stroke="#0ABAB5" stroke-opacity="0.1" stroke-width="0.864782" stroke-miterlimit="10"/>
<path d="M1936.31 693.186C1937.69 702.902 1914.06 706.569 1879.97 694.371C1853.17 684.776 1822.34 666.296 1790.93 657.012C1752.53 645.662 1712.71 628.535 1666.64 621.271C1589.74 609.147 1505.31 605.207 1426.4 601.195C1331.49 596.369 1239.47 604.126 1151.52 617.466C1067.17 630.26 982.832 657.393 893.149 645.281C796.692 632.258 717.862 600.196 640.183 571.753C566.236 544.677 503.626 520.831 427.745 515.88C335.987 509.891 230.415 548.733 138.415 605.389C42.9042 664.207 -34.8181 723.211 -91.4268 806.486" stroke="#0ABAB5" stroke-opacity="0.1" stroke-width="0.864782" stroke-miterlimit="10"/>
<path d="M1945.53 681.442C1945.45 694.782 1919.96 702.041 1883.3 691.703C1855.3 683.803 1823.19 666.049 1790.65 658.18C1751.25 648.654 1710.27 632.971 1663.36 626.611C1583.87 615.831 1497.14 611.283 1415.91 605.826C1321.61 599.487 1230.19 604.637 1142.77 615.619C1060.27 625.984 977.717 650.967 889.911 638.363C793.527 624.527 713.418 594.108 635.043 568.93C560.213 544.889 497.015 525.894 421.467 524.311C331.448 522.426 228.193 562.82 136.5 618.24C40.9198 676.012 -38.3807 730.216 -97.1167 810.619" stroke="#0ABAB5" stroke-opacity="0.1" stroke-width="0.864782" stroke-miterlimit="10"/>
<path d="M1954.76 669.698C1953.21 686.661 1925.87 697.44 1886.63 689.03C1857.43 682.773 1824.04 665.785 1790.37 659.347C1749.98 651.624 1707.83 637.424 1660.07 631.946C1577.99 622.537 1488.95 617.396 1405.42 610.447C1311.73 602.651 1220.93 605.168 1134.03 613.764C1053.39 621.737 972.606 644.516 886.677 631.431C790.366 616.765 708.972 588.015 629.905 566.088C554.185 545.091 490.433 530.892 415.189 532.721C326.938 534.87 225.966 576.885 134.584 631.072C38.9306 687.798 -41.9482 737.207 -102.812 814.739" stroke="#0ABAB5" stroke-opacity="0.1" stroke-width="0.864782" stroke-miterlimit="10"/>
<path d="M1963.98 657.955C1960.97 678.541 1931.77 692.771 1889.96 686.363C1859.55 681.702 1824.89 665.509 1790.09 660.519C1748.71 654.582 1705.4 641.891 1656.79 637.291C1572.11 629.274 1480.77 623.562 1394.93 615.079C1301.84 605.882 1211.7 605.739 1125.28 611.914C1046.53 617.543 967.495 638.052 883.438 624.509C787.201 608.999 704.515 581.94 624.764 563.261C548.149 545.317 483.87 535.852 408.906 541.149C322.45 547.258 223.735 590.96 132.665 643.919C36.9332 699.59 -45.5151 744.204 -108.506 818.86" stroke="#0ABAB5" stroke-opacity="0.1" stroke-width="0.864782" stroke-miterlimit="10"/>
<path d="M1973.2 646.211C1968.74 670.425 1937.65 688.04 1893.29 683.69C1861.66 680.59 1825.75 665.214 1789.81 661.682C1747.44 657.518 1702.96 646.362 1653.5 642.622C1566.24 636.019 1472.59 629.758 1384.44 619.697C1291.95 609.142 1202.48 606.336 1116.54 610.054C1039.69 613.379 962.388 631.561 880.204 617.574C784.044 601.208 700.061 575.865 619.628 560.416C542.113 545.533 477.323 540.733 402.632 549.558C317.983 559.56 221.508 605.017 130.753 656.752C34.9484 711.363 -49.0781 751.195 -114.192 822.977" stroke="#0ABAB5" stroke-opacity="0.1" stroke-width="0.864782" stroke-miterlimit="10"/>
<path d="M1982.42 634.468C1976.5 662.305 1943.51 683.259 1896.62 681.023C1863.75 679.454 1826.6 664.912 1789.53 662.854C1746.17 660.446 1700.53 650.855 1650.22 647.963C1560.35 642.8 1464.39 636.007 1373.95 624.324C1282.05 612.455 1193.28 606.985 1107.78 608.204C1032.85 609.272 957.273 625.063 876.96 610.652C780.875 593.408 695.594 569.808 614.482 557.588C536.068 545.776 470.777 545.572 396.345 557.986C313.507 571.797 219.268 619.087 128.829 669.599C32.9418 723.151 -52.65 758.196 -119.896 827.106" stroke="#0ABAB5" stroke-opacity="0.1" stroke-width="0.864782" stroke-miterlimit="10"/>
<path d="M1991.65 622.724C1984.26 654.185 1949.35 678.438 1899.95 678.351C1865.81 678.291 1827.45 664.597 1789.25 664.022C1744.89 663.356 1698.09 655.353 1646.94 653.303C1554.48 649.597 1456.19 642.303 1363.46 628.955C1272.14 615.81 1184.09 607.686 1099.04 606.358C1026.04 605.217 952.162 618.552 873.722 603.734C777.718 585.595 691.132 563.768 609.341 554.765C530.028 546.031 464.231 550.355 390.063 566.414C309.032 583.965 217.033 633.158 126.909 682.451C30.9445 734.934 -56.2169 765.197 -125.585 831.232" stroke="#0ABAB5" stroke-opacity="0.1" stroke-width="0.864782" stroke-miterlimit="10"/>
<path d="M2000.87 610.98C1992.02 646.065 1955.16 673.582 1903.28 675.683C1867.85 677.119 1828.29 664.268 1788.96 665.189C1743.61 666.253 1695.66 659.858 1643.65 658.639C1548.61 656.407 1447.98 648.637 1352.97 633.577C1262.23 619.192 1174.91 608.429 1090.29 604.499C1019.23 601.2 947.064 612.01 870.488 596.798C774.566 577.747 686.674 557.723 604.204 551.92C523.987 546.278 457.675 555.042 383.788 574.824C304.553 596.037 214.801 647.202 124.998 695.279C28.9466 746.704 -59.78 772.185 -131.276 835.348" stroke="#0ABAB5" stroke-opacity="0.1" stroke-width="0.864782" stroke-miterlimit="10"/>
<path d="M2010.09 599.236C1999.78 637.948 1960.94 668.699 1906.61 673.01C1869.88 675.925 1829.13 663.926 1788.68 666.356C1742.32 669.14 1693.22 664.375 1640.36 663.978C1542.74 663.243 1439.75 655.023 1342.47 638.203C1252.3 622.611 1165.72 609.233 1081.54 602.647C1012.41 597.238 941.958 605.454 867.249 589.874C771.41 569.885 682.212 551.694 599.059 549.091C517.942 546.549 451.086 559.685 377.502 583.25C300.03 608.061 212.553 661.262 123.074 708.125C26.9362 758.477 -63.3514 779.188 -136.979 839.477" stroke="#0ABAB5" stroke-opacity="0.1" stroke-width="0.864782" stroke-miterlimit="10"/>
<path d="M2019.32 587.492C2007.55 629.828 1966.7 663.801 1909.94 670.343C1871.88 674.732 1829.97 663.585 1788.41 667.528C1741.03 672.025 1690.8 668.903 1637.09 669.318C1536.88 670.096 1431.52 661.453 1331.99 642.83C1242.37 626.062 1156.56 610.102 1072.8 600.797C1005.61 593.334 936.868 598.886 864.019 582.948C768.271 562.003 677.762 545.676 593.926 546.255C511.91 546.822 444.474 564.256 371.227 591.669C295.49 620.017 210.317 675.311 121.163 720.967C24.9384 770.242 -66.9144 786.185 -142.665 843.602" stroke="#0ABAB5" stroke-opacity="0.1" stroke-width="0.864782" stroke-miterlimit="10"/>
<path d="M2028.54 575.748C2015.31 621.707 1972.43 658.884 1913.27 667.67C1873.87 673.524 1830.8 663.225 1788.13 668.695C1739.72 674.895 1688.37 673.429 1633.8 674.657C1531.01 676.962 1423.26 667.925 1321.5 647.456C1232.42 629.537 1147.37 611.031 1064.05 598.946C998.783 589.476 931.766 592.295 860.776 576.025C765.123 554.098 673.3 539.669 588.781 543.427C505.87 547.111 437.811 568.773 364.945 600.091C290.898 631.92 208.073 689.359 119.239 733.808C22.9236 782.007 -70.4859 793.18 -148.368 847.722" stroke="#0ABAB5" stroke-opacity="0.1" stroke-width="0.864782" stroke-miterlimit="10"/>
<path d="M2037.77 564.005C2023.07 613.587 1978.14 653.959 1916.6 665.002C1875.84 672.318 1831.62 662.871 1787.84 669.862C1738.41 677.762 1685.95 677.966 1630.51 679.993C1525.15 683.842 1414.99 674.442 1311.01 652.083C1222.46 633.04 1138.16 612.03 1055.31 597.095C991.955 585.672 926.681 585.693 857.542 569.102C761.992 546.173 668.855 533.668 583.644 540.595C499.842 547.409 431.105 573.236 358.666 608.515C286.263 643.781 205.829 703.403 117.323 746.655C20.9171 793.769 -74.049 800.181 -154.059 851.852" stroke="#0ABAB5" stroke-opacity="0.1" stroke-width="0.864782" stroke-miterlimit="10"/>
<path d="M2046.99 552.261C2030.84 605.467 1983.83 649.026 1919.93 662.331C1877.79 671.108 1832.44 662.504 1787.56 671.03C1737.1 680.621 1683.53 682.51 1627.23 685.33C1519.31 690.739 1406.7 681.006 1300.52 656.705C1212.48 636.56 1128.93 613.099 1046.56 595.237C985.106 581.91 921.597 579.065 854.304 562.167C758.862 538.204 664.406 527.667 578.503 537.754C493.815 547.699 424.338 577.643 352.388 616.93C281.576 655.594 203.585 717.435 115.408 759.489C18.9068 805.513 -77.6159 807.173 -159.749 855.968" stroke="#0ABAB5" stroke-opacity="0.1" stroke-width="0.864782" stroke-miterlimit="10"/>
<path d="M2056.21 540.518C2038.6 597.352 1989.5 644.089 1923.26 659.663C1879.72 669.898 1833.25 662.137 1787.28 672.203C1735.77 683.484 1681.11 687.064 1623.94 690.675C1513.45 697.653 1398.39 687.618 1290.02 661.337C1202.49 640.106 1119.67 614.254 1037.81 593.391C978.227 578.205 916.516 572.433 851.06 555.25C755.74 530.223 659.961 521.683 573.357 534.927C487.787 548.016 417.506 582.023 346.101 625.358C276.823 667.399 201.332 731.475 113.483 772.34C16.8872 817.274 -81.1878 814.178 -165.452 860.103" stroke="#0ABAB5" stroke-opacity="0.1" stroke-width="0.864782" stroke-miterlimit="10"/>
<path d="M2065.44 528.774C2046.36 589.23 1995.15 639.15 1926.59 656.991C1881.65 668.687 1834.05 661.76 1787 673.365C1734.44 686.333 1678.7 691.612 1620.67 696.005C1507.62 704.566 1390.07 694.263 1279.54 665.954C1192.49 643.66 1110.37 615.464 1029.07 591.531C971.326 574.534 911.449 565.769 847.827 548.313C752.636 522.193 655.529 515.689 568.221 532.086C481.773 548.318 410.627 586.364 339.823 633.767C272.02 679.163 199.084 745.492 111.568 785.168C14.8769 829.004 -84.7547 821.161 -171.142 864.21" stroke="#0ABAB5" stroke-opacity="0.1" stroke-width="0.864782" stroke-miterlimit="10"/>
<path d="M2074.66 517.03C2054.12 581.111 2000.79 634.208 1929.92 654.323C1883.56 667.476 1834.85 661.388 1786.72 674.537C1733.1 689.187 1676.28 696.17 1617.38 701.35C1501.78 711.507 1381.72 700.965 1269.05 670.585C1182.47 647.241 1101.01 616.766 1020.32 589.685C964.395 570.911 906.385 559.106 844.592 541.396C749.544 514.151 651.101 509.723 563.084 529.263C475.767 548.647 403.678 590.697 333.549 642.199C267.164 690.947 196.84 759.528 109.657 798.024C12.8661 840.757 -88.3134 828.17 -176.833 868.348" stroke="#0ABAB5" stroke-opacity="0.1" stroke-width="0.864782" stroke-miterlimit="10"/>
<path d="M2083.88 505.286C2061.89 572.99 2006.42 629.266 1933.24 651.65C1885.47 666.265 1835.64 661.007 1786.44 675.704C1731.76 692.036 1673.87 700.731 1614.09 706.685C1495.95 718.451 1373.35 707.701 1258.55 675.212C1172.43 650.833 1091.59 618.14 1011.57 587.834C957.407 567.317 901.326 552.421 841.349 534.473C746.457 506.069 646.674 503.751 557.934 526.43C469.752 548.971 396.661 595.012 327.258 650.621C262.235 702.72 194.579 773.555 107.728 810.866C10.8383 852.492 -91.8892 835.17 -182.536 872.473" stroke="#0ABAB5" stroke-opacity="0.1" stroke-width="0.864782" stroke-miterlimit="10"/>
<path d="M2093.1 493.543C2069.65 564.87 2012.04 624.328 1936.57 648.983C1887.36 665.064 1836.43 660.628 1786.16 676.872C1730.41 694.886 1671.47 705.298 1610.81 712.022C1490.13 725.404 1364.95 714.478 1248.07 679.834C1162.38 654.436 1082.1 619.576 1002.83 585.975C950.385 563.746 896.28 545.715 838.115 527.538C743.4 497.936 642.259 497.767 552.797 523.59C463.759 549.287 389.595 599.31 320.979 659.036C257.262 714.495 192.326 787.565 105.813 823.7C8.82319 864.21 -95.4566 842.158 -188.226 876.585" stroke="#0ABAB5" stroke-opacity="0.1" stroke-width="0.864782" stroke-miterlimit="10"/>
<path d="M2102.33 481.799C2077.41 556.754 2017.65 619.386 1939.91 646.311C1889.25 663.853 1837.22 660.247 1785.88 678.04C1729.07 697.735 1669.07 709.864 1607.53 717.361C1484.31 732.369 1356.53 721.305 1237.58 684.461C1152.31 658.054 1072.54 621.085 994.083 584.124C943.312 560.204 891.239 539 834.881 520.615C740.356 489.776 637.853 491.804 547.661 520.757C457.771 549.615 382.479 603.621 314.706 667.455C252.247 726.286 190.013 801.414 103.902 836.541C6.73509 875.755 -99.0148 849.154 -193.916 880.71" stroke="#0ABAB5" stroke-opacity="0.1" stroke-width="0.864782" stroke-miterlimit="10"/>
<path d="M2111.55 470.056C2085.18 548.634 2023.25 614.448 1943.24 643.643C1891.13 662.656 1838 659.867 1785.6 679.212C1727.7 700.585 1666.67 714.439 1604.24 722.702C1478.5 739.345 1348.09 728.172 1227.09 689.088C1142.23 661.678 1062.88 622.651 985.335 582.274C936.177 556.681 886.21 532.272 831.642 513.688C737.333 481.57 633.503 486.002 542.519 517.926C451.838 550.113 375.301 607.941 308.423 675.878C247.175 738.095 187.777 815.471 101.982 849.384C4.73717 887.529 -102.587 856.151 -199.611 884.835" stroke="#0ABAB5" stroke-opacity="0.1" stroke-width="0.864782" stroke-miterlimit="10"/>
<path d="M2120.78 458.312C2092.94 540.513 2028.84 609.514 1946.57 640.971C1893.01 661.449 1838.74 659.395 1785.32 680.375C1726.3 703.33 1664.29 719.121 1600.96 728.037C1472.73 746.552 1339.62 735.072 1216.6 693.71C1132.13 665.31 1053.14 624.259 976.593 580.419C928.995 553.156 881.198 525.527 828.408 506.761C734.337 473.32 629.08 479.953 537.383 515.089C445.837 550.359 368.084 612.269 302.145 684.296C242.064 749.925 185.546 829.528 100.062 862.225C2.73981 899.299 -106.154 863.151 -205.305 888.96" stroke="#0ABAB5" stroke-opacity="0.1" stroke-width="0.864782" stroke-miterlimit="10"/>
<path d="M2130 446.567C2100.7 532.393 2034.42 604.58 1949.9 638.303C1894.88 660.251 1839.55 659.105 1785.04 681.546C1724.97 706.279 1661.88 723.592 1597.67 733.377C1466.89 753.314 1331.13 742.016 1206.11 698.34C1122.01 668.959 1043.3 625.919 967.845 578.568C921.744 549.641 876.195 518.772 825.169 499.838C731.366 465.022 624.656 473.907 532.241 512.261C439.826 550.614 360.824 616.618 295.866 692.723C236.914 761.785 183.315 843.589 98.1467 875.071C0.741911 911.076 -109.717 870.151 -211 893.085" stroke="#0ABAB5" stroke-opacity="0.1" stroke-width="0.864782" stroke-miterlimit="10"/>
<path d="M1963.83 764.61C1951.7 655.444 1892.31 550.395 1799.19 473.39C1772.69 451.481 1742.29 431.232 1706.17 423.734C1601.78 402.076 1502.42 477.654 1422.41 522.592C1325.85 576.831 1230.7 633.141 1129.06 680.644C1072 707.314 1004.12 731.623 943.304 711.62C881.717 691.363 852.232 634.369 821.761 585.155C786.254 527.807 740.393 473.563 678.162 435.422C615.935 397.285 535.615 376.742 460.242 390.324C401.22 400.956 349.936 431.033 303.735 463.605C182.336 549.188 83.5299 657.156 16.3711 777.603" stroke="#0ABAB5" stroke-opacity="0.1" stroke-width="0.864782" stroke-miterlimit="10"/>
<path d="M1966.51 759.615C1954.78 653.969 1894.24 554.562 1799.39 477.575C1772.91 456.081 1742.85 436.057 1707.23 428.447C1604.09 406.356 1506.05 478.237 1426.25 521.618C1341.16 567.871 1257.12 616.52 1167.82 659.69C1156.84 665.017 1145.8 670.257 1134.68 675.394C1078.05 701.567 1010.98 725.512 950.779 706.595C889.781 687.449 859.877 632.778 829.05 585.617C793.038 530.694 747.048 478.76 685.271 442.314C623.333 405.919 543.936 386.44 469.384 399.775C418.72 408.829 373.705 431.889 332.663 458.252C326.306 462.329 320.084 466.519 313.888 470.683C190.941 553.3 92.5119 652.897 27.52 769.461" stroke="#0ABAB5" stroke-opacity="0.1" stroke-width="0.864782" stroke-miterlimit="10"/>
<path d="M1969.19 754.621C1957.85 652.499 1896.19 558.727 1799.61 481.765C1773.14 460.678 1743.42 440.891 1708.29 433.164C1606.41 410.641 1509.68 478.829 1430.08 520.654C1345.84 564.914 1262.55 612.304 1173.18 654.761C1162.28 659.98 1151.32 665.116 1140.29 670.158C1084.1 695.833 1017.84 719.416 958.252 701.584C897.836 683.553 867.515 631.2 836.332 586.097C799.814 533.605 753.7 483.97 692.366 449.223C630.718 414.567 552.25 396.156 478.513 409.249C428.302 418.152 383.581 440.472 342.735 465.836C336.404 469.758 330.229 473.818 324.027 477.783C199.466 557.442 101.485 648.664 38.6553 761.341" stroke="#0ABAB5" stroke-opacity="0.1" stroke-width="0.864782" stroke-miterlimit="10"/>
<path d="M1973.07 750.631C1962.12 652.028 1899.35 563.886 1801.01 486.955C1774.57 466.269 1745.18 446.721 1710.55 438.881C1609.92 415.926 1514.53 480.425 1435.11 520.685C1351.73 562.956 1269.04 608.893 1179.74 650.831C1168.91 655.92 1158.05 660.975 1147.1 665.917C1091.34 691.095 1025.9 714.314 966.924 697.572C907.097 680.653 876.461 630.569 844.814 587.576C807.914 537.445 761.661 490.046 700.668 457.132C639.411 424.081 561.763 406.871 488.852 419.722C439.096 428.474 394.674 450.059 354.013 474.42C347.703 478.186 341.579 482.116 335.378 485.882C209.14 562.584 111.665 645.426 51.0068 754.22" stroke="#0ABAB5" stroke-opacity="0.1" stroke-width="0.864782" stroke-miterlimit="10"/>
<path d="M1974.56 744.638C1964 649.559 1900.14 567.037 1800.02 490.141C1773.61 469.853 1744.55 450.547 1710.42 442.595C1611.05 419.203 1517 480.014 1437.75 518.713C1355.25 558.999 1273.23 603.609 1183.9 644.898C1173.15 649.871 1162.37 654.83 1151.52 659.673C1096.19 684.358 1031.56 707.21 973.198 691.553C913.954 675.745 882.931 627.961 850.897 587.044C813.528 539.317 767.145 494.201 706.57 463.026C645.633 431.669 568.883 415.571 496.787 428.175C447.485 436.775 403.357 457.625 362.892 480.983C356.608 484.593 350.526 488.39 344.324 491.966C216.342 565.71 119.44 640.176 60.9487 745.083" stroke="#0ABAB5" stroke-opacity="0.1" stroke-width="0.864782" stroke-miterlimit="10"/>
<path d="M1977.24 739.644C1967.07 648.085 1902.13 571.18 1800.24 494.327C1773.86 474.437 1745.12 455.377 1711.49 447.309C1613.37 423.484 1520.68 480.612 1441.59 517.745C1359.98 556.06 1278.63 599.333 1189.27 639.965C1178.59 644.821 1167.91 649.685 1157.14 654.429C1102.24 678.617 1038.43 701.105 980.68 686.538C922.018 671.841 890.609 626.358 858.187 587.52C820.349 542.193 773.828 499.365 713.675 469.932C653.053 440.27 577.201 425.283 505.925 437.645C457.076 446.09 413.243 466.204 372.969 488.563C366.706 492.018 360.664 495.685 354.468 499.062C224.675 569.84 128.413 635.935 72.0884 736.955" stroke="#0ABAB5" stroke-opacity="0.1" stroke-width="0.864782" stroke-miterlimit="10"/>
<path d="M1979.93 734.65C1970.15 646.611 1904.14 575.314 1800.44 498.517C1774.11 479.017 1745.68 460.208 1712.55 452.027C1615.69 427.77 1524.37 481.217 1445.43 516.777C1364.72 553.124 1284.01 595.057 1194.63 635.036C1184.03 639.78 1173.43 644.54 1162.75 649.193C1108.29 672.883 1045.29 695.009 988.15 681.527C930.077 667.945 898.275 624.758 865.467 588.001C827.154 545.073 780.498 504.536 720.774 476.842C660.462 448.875 585.517 434.995 515.057 447.119C466.667 455.412 423.128 474.792 383.045 496.148C376.808 499.447 370.802 502.975 364.616 506.162C232.951 573.965 137.395 631.702 83.2324 728.835" stroke="#0ABAB5" stroke-opacity="0.1" stroke-width="0.864782" stroke-miterlimit="10"/>
<path d="M1982.61 729.655C1973.22 645.14 1906.17 579.434 1800.65 502.702C1774.37 483.59 1746.23 465.093 1713.62 456.739C1617.95 432.218 1528.09 481.822 1449.27 515.803C1369.5 550.196 1289.42 590.78 1200 630.102C1189.48 634.728 1178.97 639.394 1168.37 643.947C1114.35 667.145 1052.16 688.903 995.636 676.506C938.146 664.036 905.951 623.145 872.767 588.467C833.979 547.939 787.184 509.689 727.888 483.737C667.88 457.47 593.849 444.697 524.209 456.575C476.273 464.716 433.08 483.43 393.136 503.709C386.924 506.862 380.95 510.247 374.774 513.244C241.169 578.055 146.382 627.447 94.3862 720.696" stroke="#0ABAB5" stroke-opacity="0.1" stroke-width="0.864782" stroke-miterlimit="10"/>
<path d="M1985.29 724.66C1976.3 643.665 1908.22 583.545 1800.86 506.886C1774.63 488.155 1746.79 469.926 1714.69 461.446C1620.25 436.51 1531.81 482.43 1453.1 514.829C1374.27 547.28 1294.81 586.511 1205.36 625.163C1194.92 629.677 1184.49 634.243 1173.98 638.696C1120.39 661.397 1059.01 682.792 1003.1 671.485C946.2 660.126 913.604 621.531 880.042 588.937C840.775 550.804 793.845 514.855 734.983 490.633C675.279 466.064 602.156 454.398 533.336 466.034C485.855 474.025 442.961 492.008 403.208 511.279C397.022 514.28 391.073 517.523 384.918 520.329C249.301 582.122 155.355 623.2 105.526 712.562" stroke="#0ABAB5" stroke-opacity="0.1" stroke-width="0.864782" stroke-miterlimit="10"/>
<path d="M1987.97 719.667C1979.37 642.195 1910.28 587.645 1801.07 511.073C1774.9 492.722 1747.35 474.76 1715.75 466.16C1622.57 440.809 1535.55 483.049 1456.94 513.857C1379.07 544.375 1300.22 582.24 1210.73 620.23C1200.36 624.631 1190.02 629.098 1179.6 633.452C1126.45 655.655 1065.87 676.687 1010.58 666.465C954.263 656.222 921.27 619.918 887.332 589.409C847.579 553.672 800.511 520.019 742.092 497.534C682.682 474.67 610.483 464.106 542.478 475.495C495.451 483.33 452.855 500.591 413.294 518.851C407.128 521.696 401.211 524.797 395.071 527.417C257.384 586.162 164.336 618.95 116.68 704.429" stroke="#0ABAB5" stroke-opacity="0.1" stroke-width="0.864782" stroke-miterlimit="10"/>
<path d="M1990.65 714.678C1982.44 640.726 1912.35 591.74 1801.28 515.268C1775.16 497.293 1747.91 479.6 1716.81 470.883C1624.87 445.112 1539.3 483.69 1460.77 512.894C1383.87 541.496 1305.62 577.986 1216.09 615.301C1205.8 619.591 1195.54 623.958 1185.21 628.217C1132.49 649.927 1072.73 670.595 1018.05 661.459C962.319 652.327 928.918 618.315 894.608 589.89C854.366 556.548 807.163 525.2 749.183 504.445C690.067 483.284 618.786 473.823 551.602 484.97C505.028 492.654 462.732 509.184 423.357 526.436C417.217 529.126 411.32 532.083 405.201 534.522C265.378 590.188 173.3 614.722 127.805 696.314" stroke="#0ABAB5" stroke-opacity="0.1" stroke-width="0.864782" stroke-miterlimit="10"/>
<path d="M1993.34 709.683C1985.52 639.251 1914.45 595.817 1801.49 519.452C1775.45 501.845 1748.48 484.433 1717.88 475.595C1627.19 449.405 1543.08 484.329 1464.61 511.92C1388.7 538.616 1311.04 573.726 1221.45 610.367C1211.24 614.544 1201.08 618.812 1190.83 622.971C1138.54 644.184 1079.6 664.489 1025.53 656.438C970.387 648.417 936.578 616.701 901.902 590.36C861.164 559.41 813.822 530.37 756.296 511.345C697.469 491.887 627.117 483.525 560.753 494.434C514.633 501.967 472.637 517.766 433.452 534.011C427.333 536.545 421.461 539.36 415.368 541.612C273.348 594.152 182.296 610.479 138.968 688.184" stroke="#0ABAB5" stroke-opacity="0.1" stroke-width="0.864782" stroke-miterlimit="10"/>
<path d="M1996.02 704.689C1988.59 637.781 1916.56 599.877 1801.69 523.638C1775.72 506.399 1749.04 489.263 1718.94 480.308C1629.5 453.695 1546.85 484.982 1468.44 510.952C1393.54 535.762 1316.44 569.476 1226.81 605.438C1216.68 609.502 1206.6 613.671 1196.44 617.731C1144.58 638.447 1086.47 658.293 1033 651.427C978.453 644.422 944.211 615.098 909.179 590.84C867.936 562.285 820.465 535.555 763.387 518.251C704.844 500.505 635.421 493.237 569.877 503.9C524.212 511.281 482.509 526.349 443.515 541.587C437.422 543.969 431.566 546.628 425.498 548.704C281.229 598.07 191.255 606.234 150.094 680.056" stroke="#0ABAB5" stroke-opacity="0.1" stroke-width="0.864782" stroke-miterlimit="10"/>
<path d="M1998.7 699.694C1991.66 636.305 1918.68 603.923 1801.9 527.823C1776.01 510.946 1749.6 494.092 1720.01 485.02C1631.81 457.983 1550.66 485.647 1472.29 509.978C1398.4 532.916 1321.86 565.22 1232.18 600.499C1222.13 604.451 1212.13 608.52 1202.06 612.48C1150.64 632.703 1093.33 652.178 1040.48 646.402C986.521 640.504 951.856 613.479 916.473 591.302C874.724 565.142 827.119 540.721 770.501 525.142C712.237 509.109 643.752 502.934 579.023 513.355C533.812 520.58 492.403 534.923 453.605 549.152C447.533 551.379 441.692 553.887 435.656 555.79C289.08 601.926 200.242 601.986 161.248 671.921" stroke="#0ABAB5" stroke-opacity="0.1" stroke-width="0.864782" stroke-miterlimit="10"/>
<path d="M2001.39 694.699C1994.74 634.835 1920.83 607.953 1802.11 532.012C1776.29 515.499 1750.16 498.926 1721.07 489.737C1634.12 462.272 1554.47 486.33 1476.12 509.009C1403.27 530.092 1327.28 560.978 1237.54 595.569C1227.57 599.413 1217.66 603.378 1207.68 607.244C1156.69 626.97 1100.2 646.077 1047.95 641.39C994.576 636.603 959.488 611.875 923.754 591.782C881.489 568.017 833.755 545.914 777.596 532.051C719.606 517.735 652.065 512.65 588.151 522.828C543.394 529.902 502.28 543.514 463.673 556.736C457.626 558.807 451.801 561.164 445.796 562.889C296.867 605.731 209.215 597.749 172.383 663.801" stroke="#0ABAB5" stroke-opacity="0.1" stroke-width="0.864782" stroke-miterlimit="10"/>
<path d="M2004.07 689.706C1997.81 633.361 1922.98 611.971 1802.32 536.198C1776.59 520.04 1750.73 503.752 1722.14 494.451C1636.43 466.557 1558.3 487.031 1479.96 508.041C1408.16 527.291 1332.7 556.741 1242.91 590.641C1233.02 594.372 1223.18 598.238 1213.29 602.004C1162.74 621.232 1107.06 639.972 1055.43 636.379C1002.64 632.699 967.122 610.276 931.043 592.262C888.257 570.898 840.399 551.112 784.704 538.961C726.987 526.37 660.386 522.366 597.297 532.298C552.994 539.221 512.174 552.102 473.763 564.312C467.737 566.228 461.922 568.424 455.953 569.981C304.63 609.463 218.201 593.507 183.541 655.672" stroke="#0ABAB5" stroke-opacity="0.1" stroke-width="0.864782" stroke-miterlimit="10"/>
<path d="M2006.75 684.713C2000.89 631.892 1925.16 615.967 1802.53 540.385C1776.88 524.577 1751.29 508.583 1723.21 499.166C1638.75 470.844 1562.14 487.755 1483.79 507.07C1413.06 524.508 1338.13 552.505 1248.27 585.704C1238.46 589.328 1228.71 593.085 1218.9 596.756C1168.78 615.492 1113.91 633.864 1062.9 631.356C1010.69 628.788 974.734 608.669 938.32 592.726C895.007 573.766 847.025 556.297 791.8 545.851C734.351 534.985 668.699 532.057 606.426 541.752C562.582 548.519 522.051 560.669 483.83 571.876C477.825 573.636 472.026 575.673 466.087 577.065C312.335 613.105 227.165 589.254 194.671 647.536" stroke="#0ABAB5" stroke-opacity="0.1" stroke-width="0.864782" stroke-miterlimit="10"/>
<path d="M2009.43 679.719C2003.96 630.418 1927.35 619.95 1802.74 544.571C1777.19 529.113 1751.86 513.409 1724.27 503.874C1641.07 475.116 1566 488.49 1487.63 506.093C1417.97 521.741 1343.56 548.268 1253.64 580.766C1243.91 584.282 1234.24 587.936 1224.52 591.507C1174.83 609.745 1120.77 627.754 1070.38 626.336C1018.75 624.883 982.359 607.069 945.614 593.198C901.765 576.646 853.665 561.495 798.909 552.752C741.723 543.62 677.02 541.765 615.568 551.217C572.178 557.832 531.94 569.248 493.916 579.452C487.931 581.056 482.143 582.928 476.246 584.156C320.032 616.677 236.157 585.013 205.825 639.407" stroke="#0ABAB5" stroke-opacity="0.1" stroke-width="0.864782" stroke-miterlimit="10"/>
<path d="M2012.12 674.729C2007.03 628.947 1929.55 623.91 1802.95 548.765C1777.49 533.653 1752.42 518.242 1725.34 508.596C1643.38 479.405 1569.86 489.263 1491.46 505.132C1422.89 519.012 1348.98 544.056 1259 575.841C1249.35 579.248 1239.77 582.798 1230.13 586.275C1180.88 604.016 1127.62 621.661 1077.85 621.329C1026.81 620.987 989.964 605.486 952.894 593.681C908.503 579.547 860.295 566.713 806.008 559.665C749.086 552.276 685.337 551.484 624.705 560.69C581.769 567.154 541.82 577.834 503.997 587.036C498.038 588.484 492.255 590.188 486.394 591.256C327.698 620.17 245.134 580.775 216.969 631.287" stroke="#0ABAB5" stroke-opacity="0.1" stroke-width="0.864782" stroke-miterlimit="10"/>
<path d="M2014.8 669.735C2010.11 627.477 1931.77 627.854 1803.16 552.95C1777.79 538.176 1752.99 523.068 1726.41 513.309C1645.7 483.677 1573.74 490.055 1495.3 504.159C1427.82 516.292 1354.42 539.836 1264.36 570.908C1254.8 574.207 1245.3 577.653 1235.75 581.03C1186.93 598.278 1134.49 615.556 1085.33 616.309C1034.87 617.083 997.58 603.895 960.185 594.149C915.253 582.44 866.925 571.919 813.114 566.562C756.454 560.919 693.655 561.187 633.843 570.151C591.361 576.464 551.707 586.405 514.075 594.607C508.136 595.9 502.368 597.435 496.538 598.347C335.351 623.564 254.107 576.533 228.109 623.158" stroke="#0ABAB5" stroke-opacity="0.1" stroke-width="0.864782" stroke-miterlimit="10"/>
<path d="M2017.48 664.74C2013.18 626.002 1934.01 631.77 1803.37 557.135C1778.1 542.698 1753.55 527.892 1727.46 518.021C1648.01 487.952 1577.61 490.875 1499.14 503.186C1432.75 513.598 1359.86 535.619 1269.72 565.973C1260.24 569.164 1250.82 572.507 1241.37 575.784C1192.98 592.535 1141.34 609.454 1092.81 611.292C1042.92 613.177 1005.18 602.32 967.465 594.623C921.986 585.344 873.55 577.142 820.213 573.462C763.817 569.571 701.972 570.894 642.975 579.615C600.947 585.772 561.582 594.978 524.151 602.182C518.233 603.319 512.475 604.681 506.687 605.437C343.002 626.858 263.084 572.286 239.253 615.028" stroke="#0ABAB5" stroke-opacity="0.1" stroke-width="0.864782" stroke-miterlimit="10"/>
<path d="M2020.17 659.746C2016.26 624.532 1936.26 635.67 1803.58 561.321C1778.41 547.221 1754.12 532.718 1728.53 522.734C1650.34 492.22 1581.5 491.727 1502.98 502.213C1437.69 510.93 1365.29 531.412 1275.09 561.035C1265.69 564.123 1256.35 567.357 1246.98 570.535C1199.03 586.789 1148.2 603.349 1100.28 606.268C1050.98 609.273 1012.79 600.742 974.75 595.091C928.729 588.254 880.18 582.361 827.318 580.359C771.179 578.232 710.289 580.597 652.112 589.072C610.539 595.078 571.467 603.544 534.227 609.749C528.335 610.73 522.583 611.915 516.83 612.52C350.654 630.049 272.062 568.036 250.398 606.89" stroke="#0ABAB5" stroke-opacity="0.1" stroke-width="0.864782" stroke-miterlimit="10"/>
<path d="M2022.85 654.752C2019.33 623.058 1938.52 639.545 1803.78 565.511C1778.72 551.739 1754.68 537.544 1729.59 527.452C1652.65 496.493 1585.38 492.619 1506.81 501.249C1442.62 508.297 1370.73 527.223 1280.45 556.111C1271.13 559.09 1261.88 562.221 1252.59 565.299C1205.07 581.06 1155.06 597.257 1107.76 601.261C1059.04 605.382 1020.4 599.186 982.04 595.571C935.472 591.186 886.814 587.606 834.421 587.269C778.546 586.91 718.61 590.309 661.254 598.546C620.134 604.4 581.352 612.123 544.313 617.333C538.442 618.159 532.7 619.166 526.988 619.625C358.335 633.159 281.049 563.807 261.552 598.775" stroke="#0ABAB5" stroke-opacity="0.1" stroke-width="0.864782" stroke-miterlimit="10"/>
<path d="M2025.53 649.758C2022.41 621.588 1940.81 643.394 1804 569.697C1779.04 556.254 1755.25 542.365 1730.66 532.165C1654.98 500.756 1589.27 493.54 1510.65 500.276C1447.55 505.681 1376.18 523.029 1285.82 551.178C1276.58 554.053 1267.41 557.075 1258.21 560.059C1211.12 575.322 1161.92 591.165 1115.23 596.246C1067.1 601.486 1028.01 597.629 989.325 596.047C942.216 594.118 893.445 592.847 841.526 594.175C785.919 595.593 726.933 600.02 670.392 608.015C629.726 613.719 591.233 620.697 554.39 624.913C548.539 625.583 542.812 626.409 537.132 626.721C366.029 636.16 290.022 559.566 272.691 590.651" stroke="#0ABAB5" stroke-opacity="0.1" stroke-width="0.864782" stroke-miterlimit="10"/>
<path d="M2028.22 644.763C2025.48 620.113 1943.1 647.219 1804.2 573.881C1779.35 560.758 1755.81 547.186 1731.73 536.877C1657.31 505.019 1593.15 494.499 1514.48 499.303C1452.48 503.09 1381.62 518.838 1291.18 546.239C1282.02 549.01 1272.93 551.925 1263.83 554.809C1217.18 569.575 1168.78 585.059 1122.71 591.22C1075.16 597.581 1035.64 596.072 996.611 596.513C948.97 597.049 900.08 598.091 848.626 601.066C793.288 604.27 735.245 609.718 679.525 617.466C639.313 623.014 601.113 629.253 564.467 632.47C558.637 632.981 552.92 633.625 547.276 633.794C373.748 639.038 298.994 555.306 283.831 582.503" stroke="#0ABAB5" stroke-opacity="0.1" stroke-width="0.864782" stroke-miterlimit="10"/>
<path d="M2030.9 639.774C2028.55 618.643 1945.41 651.025 1804.42 578.072C1779.67 565.269 1756.39 552.012 1732.79 541.591C1659.64 509.278 1597.02 495.498 1518.32 498.335C1457.41 500.531 1387.07 514.666 1296.54 541.31C1287.47 543.978 1278.47 546.78 1269.44 549.569C1223.22 563.842 1175.66 579.04 1130.18 586.209C1083.23 593.763 1043.25 594.533 1003.89 596.989C955.719 599.998 906.716 603.345 855.726 607.972C800.661 612.966 743.563 619.43 688.657 626.936C648.9 632.333 610.989 637.824 574.538 640.051C568.734 640.405 563.028 640.864 557.42 640.894C381.513 641.841 307.972 551.069 294.971 574.384" stroke="#0ABAB5" stroke-opacity="0.1" stroke-width="0.864782" stroke-miterlimit="10"/>
<path d="M2033.58 634.78C2031.63 617.174 1947.74 654.8 1804.62 582.262C1779.99 569.775 1756.95 556.838 1733.86 546.309C1661.97 513.542 1600.87 496.541 1522.15 497.367C1462.31 497.994 1392.52 510.498 1301.9 536.377C1292.92 538.941 1283.99 541.635 1275.05 544.324C1229.27 558.1 1182.52 572.936 1137.66 581.19C1091.29 589.859 1050.88 592.986 1011.18 597.461C962.488 602.948 913.361 608.608 862.83 614.873C808.043 621.666 751.879 629.138 697.799 636.402C658.501 641.647 620.879 646.39 584.625 647.627C578.841 647.826 573.155 648.094 567.573 647.986C389.339 644.535 316.954 546.828 306.12 566.255" stroke="#0ABAB5" stroke-opacity="0.1" stroke-width="0.864782" stroke-miterlimit="10"/>
<path d="M2036.26 629.785C2034.7 615.698 1950.08 658.544 1804.83 586.447C1780.31 574.275 1757.52 561.654 1734.92 551.021C1664.3 517.792 1604.71 497.616 1526 496.393C1467.22 495.48 1397.98 506.333 1307.27 531.442C1298.37 533.907 1289.52 536.488 1280.68 539.083C1235.33 552.361 1189.38 566.834 1145.14 576.178C1099.36 585.958 1058.52 591.45 1018.47 597.94C969.266 605.909 920.021 613.878 869.939 621.777C815.441 630.378 760.206 638.844 706.941 645.866C668.096 650.96 630.769 654.955 594.71 655.201C588.947 655.24 583.283 655.322 577.726 655.076C397.222 647.137 325.936 542.581 317.273 558.125" stroke="#0ABAB5" stroke-opacity="0.1" stroke-width="0.864782" stroke-miterlimit="10"/>
<path d="M2038.95 624.792C2037.78 614.229 1952.43 662.263 1805.04 590.633C1780.63 578.769 1758.12 566.441 1735.99 555.735C1666.71 521.944 1608.53 498.737 1529.83 495.425C1472.09 492.991 1403.43 502.183 1312.63 526.514C1303.82 528.875 1295.05 531.348 1286.29 533.843C1241.37 546.629 1196.25 560.734 1152.61 571.163C1107.42 582.055 1066.16 589.916 1025.76 598.412C976.051 608.863 926.681 619.15 877.043 628.68C822.835 639.092 768.522 648.552 716.078 655.332C677.688 660.27 640.654 663.465 604.786 662.778C599.049 662.652 593.4 662.549 587.874 662.173C405.167 649.655 334.913 538.344 328.417 550.002" stroke="#0ABAB5" stroke-opacity="0.1" stroke-width="0.864782" stroke-miterlimit="10"/>
<path d="M2041.63 619.797C2040.85 612.753 1954.8 665.95 1805.25 594.817C1780.95 583.26 1758.68 571.265 1737.06 560.447C1669.03 526.219 1612.32 499.899 1533.67 494.451C1476.94 490.52 1408.89 498.04 1318 521.575C1309.27 523.836 1300.58 526.197 1291.91 528.592C1247.42 540.881 1203.1 554.622 1160.09 566.137C1115.47 578.14 1073.81 588.371 1033.04 598.878C982.837 611.815 933.343 624.415 884.139 635.575C830.235 647.803 776.836 658.254 725.206 664.791C687.27 669.578 650.53 672.038 614.859 670.348C609.142 670.067 603.519 669.773 598.014 669.258C413.171 652.075 343.887 534.093 339.553 541.867" stroke="#0ABAB5" stroke-opacity="0.1" stroke-width="0.864782" stroke-miterlimit="10"/>
<path d="M2044.32 614.803C2043.93 611.284 1957.18 669.609 1805.47 599.008C1781.28 587.753 1759.26 576.1 1738.13 565.165C1671.36 530.504 1616.09 501.11 1537.51 493.483C1481.78 488.074 1414.39 494.006 1323.37 516.646C1314.72 518.817 1306.11 521.056 1297.53 523.352C1253.48 535.144 1209.97 548.522 1167.57 561.126C1123.55 574.245 1081.5 586.884 1040.33 599.358C989.667 614.833 940.055 629.777 891.253 642.485C837.689 656.611 785.167 667.97 734.358 674.261C696.876 678.897 660.436 680.617 624.95 677.928C619.254 677.491 613.656 676.998 608.172 676.354C421.276 654.423 352.873 529.856 350.707 533.739" stroke="#0ABAB5" stroke-opacity="0.1" stroke-width="0.864782" stroke-miterlimit="10"/>
<path d="M2047 609.809C2047 609.809 1959.57 673.232 1805.67 603.193C1651.78 533.154 1591.37 448.475 1328.73 511.712C1066.1 574.949 836.626 706.6 635.026 685.499C433.426 664.398 361.851 525.609 361.851 525.609" stroke="#0ABAB5" stroke-opacity="0.1" stroke-width="0.864782" stroke-miterlimit="10"/>
<path d="M1816.19 505.649C1803.01 470.232 1764.41 449.196 1726.71 446.454C1689.02 443.713 1651.93 455.963 1616.78 469.838C1544.07 498.527 1474.37 534.874 1400.2 559.507C1326.02 584.141 1245.11 596.637 1169.7 576.064C1123.34 563.416 1080.75 538.757 1033.88 528.168C939.896 506.929 843.836 544.391 748.122 555.469C675.705 563.849 648.508 529.032 608.17 477.6C569.013 427.671 511.085 392.829 448.626 381.635C386.167 370.44 319.748 383.001 265.686 416.226" stroke="#0ABAB5" stroke-opacity="0.1" stroke-width="0.864782" stroke-miterlimit="10"/>
<path d="M1817.56 500.664C1802.9 467.452 1763.47 447.696 1725.17 446.169C1686.81 444.682 1648.97 457.641 1612.86 471.797C1539.8 500.504 1469.33 535.977 1394.86 558.82C1320.67 581.767 1240.39 591.993 1164.93 571.42C1118.73 558.82 1076.1 534.974 1029.37 524.843C935.707 504.525 840.088 541.412 744.758 552.395C672.765 560.692 644.483 526.996 603.57 476.774C564.157 428.091 506.705 393.552 444.796 383.762C383.016 373.878 317.746 387.407 264.182 420.619" stroke="#0ABAB5" stroke-opacity="0.1" stroke-width="0.864782" stroke-miterlimit="10"/>
<path d="M1818.93 495.674C1802.8 464.672 1762.54 446.187 1723.64 445.876C1684.6 445.642 1646.03 459.306 1608.94 473.752C1535.53 502.476 1464.24 536.903 1389.54 558.124C1315.29 579.216 1235.67 587.337 1160.18 566.764C1114.13 554.216 1071.47 531.173 1024.86 521.505C931.53 502.108 836.352 538.42 741.403 549.312C669.834 557.528 640.319 525.081 598.978 475.935C559.172 428.615 502.334 394.261 440.969 385.873C379.863 377.298 315.744 391.796 262.681 424.995" stroke="#0ABAB5" stroke-opacity="0.1" stroke-width="0.864782" stroke-miterlimit="10"/>
<path d="M1820.3 490.684C1802.7 461.887 1761.61 444.682 1722.09 445.585C1682.39 446.606 1643.07 460.979 1605.02 475.706C1531.26 504.447 1459.18 537.918 1384.2 557.428C1309.93 576.756 1230.95 582.684 1155.41 562.106C1109.52 549.606 1066.82 527.377 1020.35 518.171C927.34 499.695 832.603 535.428 738.039 546.233C666.894 554.366 636.228 523.105 594.373 475.105C554.247 429.09 497.928 395.138 437.129 387.995C376.686 380.891 313.729 396.202 261.168 429.388" stroke="#0ABAB5" stroke-opacity="0.1" stroke-width="0.864782" stroke-miterlimit="10"/>
<path d="M1821.67 485.693C1802.6 459.106 1760.67 443.172 1720.55 445.295C1680.19 447.57 1640.11 462.647 1601.1 477.664C1526.99 506.422 1454.13 538.947 1378.88 556.735C1304.58 574.303 1226.24 578.031 1150.65 557.453C1104.92 545 1062.19 523.58 1015.84 514.837C923.159 497.282 828.863 532.439 734.684 543.15C663.962 551.201 632.151 521.119 589.781 474.27C549.348 429.556 493.556 395.903 433.303 390.109C373.533 384.363 311.732 400.595 259.667 433.768" stroke="#0ABAB5" stroke-opacity="0.1" stroke-width="0.864782" stroke-miterlimit="10"/>
<path d="M1823.03 480.71C1802.49 456.327 1759.74 441.673 1719.01 445.011C1677.97 448.54 1637.16 464.326 1597.18 479.629C1522.71 508.404 1449.07 539.982 1373.54 556.049C1299.22 571.862 1221.51 573.388 1145.87 552.807C1100.3 540.406 1057.53 519.793 1011.32 511.509C918.968 494.875 825.109 529.453 731.315 540.077C661.017 548.046 628.064 519.149 585.176 473.445C544.436 430.033 489.172 396.674 429.467 392.238C370.377 387.849 309.721 405.002 258.158 438.167" stroke="#0ABAB5" stroke-opacity="0.1" stroke-width="0.864782" stroke-miterlimit="10"/>
<path d="M1824.4 475.719C1802.4 453.546 1758.8 440.073 1717.47 444.721C1675.76 449.413 1634.21 465.999 1593.27 481.583C1518.44 510.376 1444.03 541.01 1368.21 555.357C1293.88 569.423 1216.8 568.735 1141.12 548.158C1095.71 535.804 1052.9 516.001 1006.82 508.179C914.792 492.466 821.373 526.469 727.964 536.998C658.09 544.885 624.004 517.168 580.588 472.615C539.55 430.504 484.809 397.435 425.645 394.361C367.233 391.325 307.727 409.408 256.662 442.555" stroke="#0ABAB5" stroke-opacity="0.1" stroke-width="0.864782" stroke-miterlimit="10"/>
<path d="M1825.77 470.729C1802.29 450.761 1757.86 438.559 1715.93 444.431C1673.55 450.368 1631.25 467.668 1589.34 483.541C1514.17 512.351 1438.98 542.052 1362.88 554.665C1288.53 566.984 1212.07 564.087 1136.35 543.505C1091.1 531.199 1048.25 512.208 1002.31 504.845C910.602 490.053 817.625 523.481 724.6 533.919C655.15 541.723 619.94 515.188 575.983 471.78C534.655 430.966 480.429 398.191 421.805 396.475C364.077 394.788 305.713 413.8 255.149 446.939" stroke="#0ABAB5" stroke-opacity="0.1" stroke-width="0.864782" stroke-miterlimit="10"/>
<path d="M1827.14 465.739C1802.19 447.981 1756.92 437.046 1714.39 444.141C1671.33 451.328 1628.27 469.25 1585.43 485.495C1509.84 514.163 1433.94 543.094 1357.55 553.969C1283.2 564.554 1207.36 559.434 1131.59 538.848C1086.49 526.59 1043.61 508.408 997.802 501.511C906.421 487.635 813.885 520.489 721.24 530.836C652.214 538.563 615.88 513.203 571.387 470.945C529.773 431.425 476.062 398.939 417.979 398.593C360.933 398.252 303.715 418.198 253.644 451.323" stroke="#0ABAB5" stroke-opacity="0.1" stroke-width="0.864782" stroke-miterlimit="10"/>
<path d="M1828.51 460.754C1802.09 445.201 1755.99 435.537 1712.85 443.857C1669.12 452.293 1625.31 470.92 1581.51 487.459C1505.57 516.135 1428.9 544.154 1352.22 553.282C1277.86 562.133 1202.64 554.787 1126.83 534.2C1081.89 521.994 1038.97 504.621 993.288 498.182C902.235 485.228 810.136 517.506 717.877 527.762C649.274 535.407 611.824 511.223 566.786 470.12C524.892 431.892 471.691 399.697 414.144 400.717C357.786 401.716 301.705 422.605 252.135 455.713" stroke="#0ABAB5" stroke-opacity="0.1" stroke-width="0.864782" stroke-miterlimit="10"/>
<path d="M1829.88 455.764C1801.98 442.42 1755.05 434.023 1711.31 443.566C1666.91 453.252 1622.36 472.584 1577.59 489.417C1501.3 518.102 1423.87 545.213 1346.89 552.589C1272.53 559.719 1197.93 550.138 1122.07 529.551C1077.28 517.393 1034.33 500.828 988.783 494.852C898.054 482.819 806.396 514.517 714.521 524.687C646.342 532.25 607.785 509.238 562.19 469.293C520.023 432.35 467.323 400.448 410.312 402.844C354.642 405.178 299.702 427.01 250.63 460.109" stroke="#0ABAB5" stroke-opacity="0.1" stroke-width="0.864782" stroke-miterlimit="10"/>
<path d="M1831.25 450.775C1801.89 439.636 1754.11 432.515 1709.77 443.277C1664.7 454.212 1619.4 474.254 1573.67 491.372C1497.02 520.07 1418.84 546.273 1341.56 551.898C1267.2 557.307 1193.21 545.486 1117.3 524.9C1072.68 512.788 1029.69 497.032 984.273 491.519C893.868 480.407 802.651 511.53 711.161 521.605C643.406 529.085 603.747 507.241 557.593 468.46C515.158 432.8 462.96 401.188 406.486 404.959C351.503 408.63 297.7 431.404 249.13 464.49" stroke="#0ABAB5" stroke-opacity="0.1" stroke-width="0.864782" stroke-miterlimit="10"/>
<path d="M1832.62 445.784C1801.78 436.856 1753.18 431.01 1708.23 442.987C1662.49 455.176 1616.44 475.922 1569.75 493.33C1492.75 522.041 1413.81 547.344 1336.23 551.206C1261.87 554.907 1188.48 540.837 1112.53 520.246C1068.07 508.187 1025.04 493.239 979.759 488.189C889.679 477.998 798.902 508.542 707.798 518.53C640.466 525.928 599.713 505.247 552.993 467.629C510.294 433.249 458.593 401.927 402.651 407.081C348.36 412.08 295.694 435.809 247.621 468.883" stroke="#0ABAB5" stroke-opacity="0.1" stroke-width="0.864782" stroke-miterlimit="10"/>
<path d="M1833.99 440.799C1801.68 434.08 1752.24 429.505 1706.69 442.702C1660.28 456.145 1613.49 477.596 1565.83 495.289C1488.48 524.017 1408.78 548.426 1330.9 550.514C1256.55 552.507 1183.77 536.185 1107.78 515.594C1063.47 503.582 1020.41 489.443 975.253 484.855C885.502 475.585 795.162 505.554 704.442 515.447C637.534 522.763 595.687 503.241 548.401 466.794C505.447 433.691 454.235 402.658 398.824 409.196C345.225 415.521 293.692 440.202 246.121 473.263" stroke="#0ABAB5" stroke-opacity="0.1" stroke-width="0.864782" stroke-miterlimit="10"/>
<path d="M1835.35 435.809C1801.58 431.295 1751.3 428 1705.15 442.411C1658.07 457.113 1610.53 479.264 1561.92 497.247C1484.21 525.993 1403.75 549.51 1325.57 549.822C1251.22 550.12 1179.05 531.536 1103.01 510.941C1058.86 498.977 1015.76 485.65 970.743 481.521C881.316 473.172 791.417 502.566 701.082 512.368C634.598 519.602 591.67 501.234 543.8 465.964C500.595 434.131 449.872 403.388 394.988 411.318C342.081 418.963 291.681 444.604 244.611 477.651" stroke="#0ABAB5" stroke-opacity="0.1" stroke-width="0.864782" stroke-miterlimit="10"/>
<path d="M1836.72 430.82C1801.48 428.515 1750.37 426.496 1703.61 442.118C1655.86 458.073 1607.58 480.93 1558 499.202C1479.94 527.969 1398.72 550.601 1320.24 549.131C1245.89 547.738 1174.33 526.888 1098.25 506.294C1054.26 494.381 1011.13 481.859 966.237 478.192C877.135 470.764 787.677 499.579 697.727 509.29C631.666 516.442 587.657 499.224 539.208 465.134C495.761 434.564 445.513 404.115 391.166 413.442C338.946 422.401 289.688 449.01 243.115 482.045" stroke="#0ABAB5" stroke-opacity="0.1" stroke-width="0.864782" stroke-miterlimit="10"/>
<path d="M1838.09 425.829C1801.38 425.729 1749.43 424.99 1702.07 441.827C1653.64 459.041 1604.62 482.602 1554.08 501.156C1475.67 529.94 1393.7 551.694 1314.9 548.433C1240.56 545.355 1169.61 522.23 1093.48 501.636C1049.65 489.771 1006.48 478.062 961.723 474.858C872.949 468.346 783.929 496.59 694.363 506.21C628.726 513.28 583.645 497.204 534.608 464.303C490.919 434.991 441.146 404.836 387.331 415.56C335.803 425.829 287.678 453.407 241.602 486.428" stroke="#0ABAB5" stroke-opacity="0.1" stroke-width="0.864782" stroke-miterlimit="10"/>
<path d="M1839.46 420.844C1801.27 422.954 1748.5 423.495 1700.53 441.543C1651.44 460.015 1601.67 484.28 1550.16 503.12C1471.4 531.926 1388.67 552.806 1309.58 547.747C1235.24 542.99 1164.9 517.587 1088.72 496.988C1045.05 485.171 1001.84 474.27 957.214 471.529C868.764 465.938 780.184 493.603 690.999 503.133C625.79 510.12 579.637 495.177 530.003 463.469C486.08 435.407 436.775 405.546 383.491 417.679C332.655 429.254 285.667 457.805 240.089 490.818" stroke="#0ABAB5" stroke-opacity="0.1" stroke-width="0.864782" stroke-miterlimit="10"/>
<path d="M1840.83 415.854C1801.17 420.17 1747.56 421.99 1698.98 441.253C1649.23 460.983 1598.71 485.954 1546.24 505.078C1467.13 533.91 1383.63 553.921 1304.24 547.055C1229.91 540.625 1160.17 512.935 1083.95 492.336C1040.43 480.57 997.193 470.478 952.7 468.195C864.574 463.526 776.435 490.615 687.635 500.054C622.85 506.959 575.633 493.144 525.402 462.639C481.246 435.822 432.408 406.255 379.66 419.798C329.512 432.675 283.661 462.207 238.584 495.203" stroke="#0ABAB5" stroke-opacity="0.1" stroke-width="0.864782" stroke-miterlimit="10"/>
<path d="M1842.2 410.865C1801.07 417.39 1746.63 420.49 1697.45 440.964C1647.02 461.957 1595.81 487.736 1542.33 507.033C1462.92 536.047 1378.61 555.037 1298.92 546.359C1224.58 538.265 1155.46 508.283 1079.2 487.684C1035.84 475.966 992.557 466.683 948.198 464.862C860.397 461.113 772.699 487.628 684.284 496.976C619.923 503.799 571.646 491.104 520.814 461.81C476.434 436.234 428.053 406.961 375.838 421.921C326.377 436.091 281.667 466.609 237.088 499.592" stroke="#0ABAB5" stroke-opacity="0.1" stroke-width="0.864782" stroke-miterlimit="10"/>
<path d="M1843.57 405.874C1800.97 414.604 1745.74 419.079 1695.91 440.673C1644.86 463.019 1592.85 489.403 1538.41 508.991C1458.65 538.021 1373.58 556.164 1293.59 545.67C1219.25 535.916 1150.74 503.633 1074.43 483.034C1031.23 471.364 987.914 462.893 943.684 461.536C856.212 458.708 768.951 484.643 680.92 493.9C616.983 500.641 567.651 489.057 516.214 460.982C471.608 436.639 423.682 407.664 372.003 424.043C323.229 439.505 279.657 471.009 235.579 503.984" stroke="#0ABAB5" stroke-opacity="0.1" stroke-width="0.864782" stroke-miterlimit="10"/>
<path d="M1844.93 400.889C1800.86 411.828 1744.81 417.579 1694.37 440.388C1642.64 463.988 1589.9 491.081 1534.49 510.95C1454.38 539.998 1368.54 557.297 1288.26 544.979C1213.92 533.572 1146.02 498.985 1069.67 478.382C1026.63 466.759 983.274 459.097 939.179 458.202C852.03 456.295 765.211 481.655 677.565 490.822C614.051 497.481 563.669 486.995 511.617 460.152C466.791 437.028 419.311 408.36 368.176 426.166C320.086 442.913 277.659 475.411 234.079 508.372" stroke="#0ABAB5" stroke-opacity="0.1" stroke-width="0.864782" stroke-miterlimit="10"/>
<path d="M1846.3 395.899C1800.77 409.044 1743.88 416.07 1692.83 440.098C1640.44 464.957 1586.94 492.751 1530.57 512.909C1450.11 541.974 1363.5 558.435 1282.93 544.287C1208.58 531.233 1141.3 494.338 1064.9 473.73C1022.02 462.159 978.634 455.306 934.669 454.869C847.845 453.883 761.466 478.663 674.205 487.739C611.115 494.316 559.682 484.924 507.021 459.314C461.974 437.409 414.935 409.04 364.345 428.281C316.929 446.312 275.648 479.809 232.569 512.757" stroke="#0ABAB5" stroke-opacity="0.1" stroke-width="0.864782" stroke-miterlimit="10"/>
<path d="M1847.67 390.909C1800.66 406.263 1742.94 414.565 1691.29 439.808C1638.23 465.92 1583.99 494.424 1526.65 514.867C1445.84 543.95 1358.46 559.581 1277.6 543.595C1203.24 528.898 1136.59 489.685 1060.14 469.077C1017.42 457.554 973.995 451.509 930.163 451.535C843.663 451.47 757.726 475.675 670.85 484.66C608.183 491.155 555.704 482.844 502.429 458.483C457.166 437.785 410.563 409.727 360.518 430.399C313.785 449.706 273.651 484.206 231.073 517.141" stroke="#0ABAB5" stroke-opacity="0.1" stroke-width="0.864782" stroke-miterlimit="10"/>
<path d="M1849.04 385.92C1800.56 403.479 1742.01 413.057 1689.75 439.519C1636.02 466.885 1581.04 496.093 1522.73 516.822C1441.57 545.918 1353.42 560.731 1272.27 542.9C1197.9 526.564 1131.87 485.033 1055.38 464.425C1012.81 452.949 969.351 447.713 925.649 448.202C839.478 449.053 753.977 472.688 667.486 481.578C605.243 487.99 551.717 480.752 497.824 457.649C452.345 438.148 406.174 410.402 356.679 432.519C310.616 453.096 271.64 488.604 229.556 521.531" stroke="#0ABAB5" stroke-opacity="0.1" stroke-width="0.864782" stroke-miterlimit="10"/>
<path d="M1850.41 380.935C1800.45 400.703 1741.07 411.556 1688.21 439.234C1633.81 467.854 1578.08 497.771 1518.81 518.785C1437.29 547.898 1348.37 561.89 1266.94 542.216C1192.56 524.246 1127.15 480.389 1050.61 459.781C1008.2 448.357 964.707 443.93 921.139 444.881C835.292 446.654 750.232 469.709 664.126 478.512C602.307 484.842 547.739 478.668 493.228 456.832C447.533 438.525 401.79 411.094 352.852 434.651C307.459 456.499 269.638 493.019 228.055 525.928" stroke="#0ABAB5" stroke-opacity="0.1" stroke-width="0.864782" stroke-miterlimit="10"/>
<path d="M1851.78 375.944C1800.35 397.918 1740.14 410.047 1686.67 438.944C1631.6 468.818 1575.13 499.44 1514.89 520.739C1433.03 549.869 1343.32 563.049 1261.6 541.52C1187.21 521.92 1122.43 475.736 1045.85 455.124C1003.59 443.748 960.063 440.128 916.629 441.542C831.106 444.236 746.487 466.716 660.762 475.429C599.366 481.677 543.752 476.553 488.627 455.993C442.716 438.87 397.397 411.759 349.016 436.764C304.29 459.88 267.632 497.412 226.546 530.308" stroke="#0ABAB5" stroke-opacity="0.1" stroke-width="0.864782" stroke-miterlimit="10"/>
<path d="M1853.15 370.955C1800.25 395.139 1739.21 408.543 1685.13 438.65C1629.4 469.778 1572.17 501.109 1510.97 522.694C1428.75 551.842 1338.26 564.208 1256.27 540.824C1181.85 519.598 1117.71 471.08 1041.08 450.467C998.983 439.139 955.415 436.333 912.115 438.205C826.921 441.82 742.739 463.72 657.398 472.342C596.426 478.512 539.77 474.426 484.026 455.155C437.895 439.208 392.999 412.421 345.181 438.875C301.116 463.258 265.621 501.801 225.037 534.689" stroke="#0ABAB5" stroke-opacity="0.1" stroke-width="0.864782" stroke-miterlimit="10"/>
<path d="M1854.52 365.965C1800.15 392.354 1738.28 407.033 1683.59 438.36C1627.19 470.742 1569.22 502.782 1507.06 524.652C1424.48 553.817 1333.2 565.379 1250.94 540.132C1176.5 517.284 1113 466.431 1036.32 445.819C994.377 434.542 950.78 432.54 907.605 434.875C822.736 439.411 738.999 460.736 654.038 469.267C593.49 475.355 535.788 472.303 479.426 454.328C433.078 439.549 388.598 413.091 341.35 441.002C297.942 466.647 263.619 506.211 223.532 539.081" stroke="#0ABAB5" stroke-opacity="0.1" stroke-width="0.864782" stroke-miterlimit="10"/>
<path d="M1855.89 360.979C1800.05 389.578 1737.35 405.533 1682.05 438.075C1624.99 471.715 1566.27 504.456 1503.14 526.611C1420.21 555.793 1328.08 566.716 1245.61 539.445C1171.09 515.123 1108.27 461.787 1031.56 441.171C989.777 429.942 946.14 428.752 903.1 431.55C818.555 437.007 735.259 457.757 650.683 466.193C590.559 472.199 531.81 470.163 474.834 453.503C428.265 439.882 384.196 413.761 337.524 443.129C294.769 470.033 261.618 510.617 222.032 543.479" stroke="#0ABAB5" stroke-opacity="0.1" stroke-width="0.864782" stroke-miterlimit="10"/>
<path d="M1857.25 355.989C1799.95 386.797 1736.41 404.024 1680.5 437.785C1622.77 472.679 1563.31 506.128 1499.22 528.57C1415.94 557.769 1323.03 567.813 1240.28 538.752C1165.74 512.744 1103.56 457.134 1026.79 436.518C985.168 425.336 941.496 424.956 898.59 428.216C814.369 434.594 731.514 454.765 647.323 463.114C587.623 469.038 527.823 468.013 470.238 452.672C423.444 440.206 379.747 414.366 333.693 445.248C291.548 473.357 259.615 515.014 220.527 547.863" stroke="#0ABAB5" stroke-opacity="0.1" stroke-width="0.864782" stroke-miterlimit="10"/>
<path d="M1858.62 351C1799.85 384.013 1735.48 402.519 1678.97 437.496C1620.57 473.643 1560.36 507.798 1495.3 530.529C1411.67 559.745 1318 568.916 1234.95 538.061C1160.4 510.362 1098.84 452.487 1022.03 431.866C980.567 420.736 936.856 421.164 894.084 424.883C810.192 432.181 727.774 451.777 643.968 460.032C584.691 465.873 523.841 465.847 465.641 451.834C418.623 440.514 375.371 415.076 329.862 447.363C288.395 476.783 257.609 519.412 219.022 552.243" stroke="#0ABAB5" stroke-opacity="0.1" stroke-width="0.864782" stroke-miterlimit="10"/>
</g>
<rect x="0.5" y="0.5" width="1919" height="1039" rx="3.5" stroke="#395251"/>
<defs>
<clipPath id="clip0_153_2193">
<rect width="1920" height="1040" rx="4" fill="white"/>
</clipPath>
</defs>
</svg>
