<svg width="51" height="51" viewBox="0 0 51 51" fill="none" xmlns="http://www.w3.org/2000/svg">
<g id="teenyicons:tick-circle-outline" clip-path="url(#clip0_916_510)">
<path id="Vector" d="M13.5992 25.4992L23.7992 33.9992L37.3992 16.9992M25.4992 49.2992C22.3738 49.2992 19.2789 48.6836 16.3914 47.4875C13.5038 46.2915 10.8801 44.5384 8.67008 42.3284C6.46004 40.1183 4.70695 37.4946 3.51089 34.6071C2.31482 31.7195 1.69922 28.6247 1.69922 25.4992C1.69922 22.3738 2.31482 19.2789 3.51089 16.3914C4.70695 13.5038 6.46004 10.8801 8.67008 8.67008C10.8801 6.46004 13.5038 4.70695 16.3914 3.51089C19.2789 2.31482 22.3738 1.69922 25.4992 1.69922C31.8114 1.69922 37.865 4.20671 42.3284 8.67008C46.7917 13.1334 49.2992 19.1871 49.2992 25.4992C49.2992 31.8114 46.7917 37.865 42.3284 42.3284C37.865 46.7917 31.8114 49.2992 25.4992 49.2992Z" stroke="#0ABAB5" stroke-width="3.4"/>
</g>
<defs>
<clipPath id="clip0_916_510">
<rect width="51" height="51" fill="white"/>
</clipPath>
</defs>
</svg>
