<svg width="356" height="80" viewBox="0 0 356 80" fill="none" xmlns="http://www.w3.org/2000/svg">
<rect x="0.5" y="0.5" width="355" height="79" rx="3.5" fill="#222222"/>
<path d="M60 37C60 30.4531 60 27.1797 61.4736 24.775C62.2982 23.4295 63.4295 22.2982 64.775 21.4736C67.1797 20 70.4531 20 77 20H83C89.5468 20 92.8203 20 95.225 21.4736C96.5705 22.2982 97.7018 23.4295 98.5263 24.775C100 27.1797 100 30.4531 100 37V43C100 49.5469 100 52.8203 98.5263 55.225C97.7018 56.5706 96.5705 57.7019 95.225 58.5264C92.8203 60 89.5468 60 83 60H77C70.4531 60 67.1797 60 64.775 58.5264C63.4295 57.7019 62.2982 56.5706 61.4736 55.225C60 52.8203 60 49.5469 60 43V37Z" fill="url(#paint0_linear_916_501)"/>
<path d="M60 37C60 30.4531 60 27.1797 61.4736 24.775C62.2982 23.4295 63.4295 22.2982 64.775 21.4736C67.1797 20 70.4531 20 77 20H83C89.5468 20 92.8203 20 95.225 21.4736C96.5705 22.2982 97.7018 23.4295 98.5263 24.775C100 27.1797 100 30.4531 100 37V43C100 49.5469 100 52.8203 98.5263 55.225C97.7018 56.5706 96.5705 57.7019 95.225 58.5264C92.8203 60 89.5468 60 83 60H77C70.4531 60 67.1797 60 64.775 58.5264C63.4295 57.7019 62.2982 56.5706 61.4736 55.225C60 52.8203 60 49.5469 60 43V37Z" fill="url(#paint1_radial_916_501)"/>
<path d="M60 37C60 30.4531 60 27.1797 61.4736 24.775C62.2982 23.4295 63.4295 22.2982 64.775 21.4736C67.1797 20 70.4531 20 77 20H83C89.5468 20 92.8203 20 95.225 21.4736C96.5705 22.2982 97.7018 23.4295 98.5263 24.775C100 27.1797 100 30.4531 100 37V43C100 49.5469 100 52.8203 98.5263 55.225C97.7018 56.5706 96.5705 57.7019 95.225 58.5264C92.8203 60 89.5468 60 83 60H77C70.4531 60 67.1797 60 64.775 58.5264C63.4295 57.7019 62.2982 56.5706 61.4736 55.225C60 52.8203 60 49.5469 60 43V37Z" fill="url(#paint2_radial_916_501)"/>
<path d="M60 37C60 30.4531 60 27.1797 61.4736 24.775C62.2982 23.4295 63.4295 22.2982 64.775 21.4736C67.1797 20 70.4531 20 77 20H83C89.5468 20 92.8203 20 95.225 21.4736C96.5705 22.2982 97.7018 23.4295 98.5263 24.775C100 27.1797 100 30.4531 100 37V43C100 49.5469 100 52.8203 98.5263 55.225C97.7018 56.5706 96.5705 57.7019 95.225 58.5264C92.8203 60 89.5468 60 83 60H77C70.4531 60 67.1797 60 64.775 58.5264C63.4295 57.7019 62.2982 56.5706 61.4736 55.225C60 52.8203 60 49.5469 60 43V37Z" fill="url(#paint3_radial_916_501)"/>
<path d="M75.2654 51V41.2561L84.7335 51H90V50.7471L79.1108 39.6538L89.16 29.1264V29H83.8596L75.2654 38.3024V29H71V51H75.2654Z" fill="white"/>
<path d="M131.404 33.648H133.114V40.056L139.63 33.648H141.844L136.426 38.832L142.06 46.5H139.9L135.256 40.002L133.114 42V46.5H131.404V33.648ZM149.845 40.956C149.821 40.596 149.737 40.254 149.593 39.93C149.461 39.606 149.275 39.33 149.035 39.102C148.807 38.862 148.531 38.676 148.207 38.544C147.895 38.4 147.547 38.328 147.163 38.328C146.767 38.328 146.407 38.4 146.083 38.544C145.771 38.676 145.501 38.862 145.273 39.102C145.045 39.342 144.865 39.624 144.733 39.948C144.601 40.26 144.523 40.596 144.499 40.956H149.845ZM151.321 43.548C151.117 44.592 150.667 45.378 149.971 45.906C149.275 46.434 148.399 46.698 147.343 46.698C146.599 46.698 145.951 46.578 145.399 46.338C144.859 46.098 144.403 45.762 144.031 45.33C143.659 44.898 143.377 44.382 143.185 43.782C143.005 43.182 142.903 42.528 142.879 41.82C142.879 41.112 142.987 40.464 143.203 39.876C143.419 39.288 143.719 38.778 144.103 38.346C144.499 37.914 144.961 37.578 145.489 37.338C146.029 37.098 146.617 36.978 147.253 36.978C148.081 36.978 148.765 37.152 149.305 37.5C149.857 37.836 150.295 38.268 150.619 38.796C150.955 39.324 151.183 39.9 151.303 40.524C151.435 41.148 151.489 41.742 151.465 42.306H144.499C144.487 42.714 144.535 43.104 144.643 43.476C144.751 43.836 144.925 44.16 145.165 44.448C145.405 44.724 145.711 44.946 146.083 45.114C146.455 45.282 146.893 45.366 147.397 45.366C148.045 45.366 148.573 45.216 148.981 44.916C149.401 44.616 149.677 44.16 149.809 43.548H151.321ZM153.33 37.194H154.86V38.454H154.896C155.148 37.938 155.544 37.566 156.084 37.338C156.624 37.098 157.218 36.978 157.866 36.978C158.586 36.978 159.21 37.11 159.738 37.374C160.278 37.638 160.722 37.998 161.07 38.454C161.43 38.898 161.7 39.414 161.88 40.002C162.06 40.59 162.15 41.214 162.15 41.874C162.15 42.534 162.06 43.158 161.88 43.746C161.712 44.334 161.448 44.85 161.088 45.294C160.74 45.726 160.296 46.068 159.756 46.32C159.228 46.572 158.61 46.698 157.902 46.698C157.674 46.698 157.416 46.674 157.128 46.626C156.852 46.578 156.576 46.5 156.3 46.392C156.024 46.284 155.76 46.14 155.508 45.96C155.268 45.768 155.064 45.534 154.896 45.258H154.86V50.046H153.33V37.194ZM160.53 41.766C160.53 41.334 160.47 40.914 160.35 40.506C160.242 40.086 160.068 39.714 159.828 39.39C159.6 39.066 159.3 38.808 158.928 38.616C158.568 38.424 158.142 38.328 157.65 38.328C157.134 38.328 156.696 38.43 156.336 38.634C155.976 38.838 155.682 39.108 155.454 39.444C155.226 39.768 155.058 40.14 154.95 40.56C154.854 40.98 154.806 41.406 154.806 41.838C154.806 42.294 154.86 42.738 154.968 43.17C155.076 43.59 155.244 43.962 155.472 44.286C155.712 44.61 156.018 44.874 156.39 45.078C156.762 45.27 157.212 45.366 157.74 45.366C158.268 45.366 158.706 45.264 159.054 45.06C159.414 44.856 159.702 44.586 159.918 44.25C160.134 43.914 160.29 43.53 160.386 43.098C160.482 42.666 160.53 42.222 160.53 41.766ZM164.261 33.648H165.791V46.5H164.261V33.648ZM168.332 37.194H169.772V39.156H169.808C170.18 38.4 170.636 37.842 171.176 37.482C171.716 37.122 172.4 36.954 173.228 36.978V38.598C172.616 38.598 172.094 38.682 171.662 38.85C171.23 39.018 170.882 39.264 170.618 39.588C170.354 39.912 170.162 40.308 170.042 40.776C169.922 41.232 169.862 41.76 169.862 42.36V46.5H168.332V37.194ZM191.703 46.5H189.921L186.987 35.7H186.951L183.981 46.5H182.199L178.905 33.648H180.651L183.171 44.34H183.207L186.087 33.648H187.941L190.785 44.34H190.821L193.431 33.648H195.141L191.703 46.5ZM204.306 46.464C204.042 46.62 203.676 46.698 203.208 46.698C202.812 46.698 202.494 46.59 202.254 46.374C202.026 46.146 201.912 45.78 201.912 45.276C201.492 45.78 201 46.146 200.436 46.374C199.884 46.59 199.284 46.698 198.636 46.698C198.216 46.698 197.814 46.65 197.43 46.554C197.058 46.458 196.734 46.308 196.458 46.104C196.182 45.9 195.96 45.636 195.792 45.312C195.636 44.976 195.558 44.574 195.558 44.106C195.558 43.578 195.648 43.146 195.828 42.81C196.008 42.474 196.242 42.204 196.53 42C196.83 41.784 197.166 41.622 197.538 41.514C197.922 41.406 198.312 41.316 198.708 41.244C199.128 41.16 199.524 41.1 199.896 41.064C200.28 41.016 200.616 40.956 200.904 40.884C201.192 40.8 201.42 40.686 201.588 40.542C201.756 40.386 201.84 40.164 201.84 39.876C201.84 39.54 201.774 39.27 201.642 39.066C201.522 38.862 201.36 38.706 201.156 38.598C200.964 38.49 200.742 38.418 200.49 38.382C200.25 38.346 200.01 38.328 199.77 38.328C199.122 38.328 198.582 38.454 198.15 38.706C197.718 38.946 197.484 39.408 197.448 40.092H195.918C195.942 39.516 196.062 39.03 196.278 38.634C196.494 38.238 196.782 37.92 197.142 37.68C197.502 37.428 197.91 37.248 198.366 37.14C198.834 37.032 199.332 36.978 199.86 36.978C200.28 36.978 200.694 37.008 201.102 37.068C201.522 37.128 201.9 37.254 202.236 37.446C202.572 37.626 202.842 37.884 203.046 38.22C203.25 38.556 203.352 38.994 203.352 39.534V44.322C203.352 44.682 203.37 44.946 203.406 45.114C203.454 45.282 203.598 45.366 203.838 45.366C203.97 45.366 204.126 45.336 204.306 45.276V46.464ZM201.822 41.694C201.63 41.838 201.378 41.946 201.066 42.018C200.754 42.078 200.424 42.132 200.076 42.18C199.74 42.216 199.398 42.264 199.05 42.324C198.702 42.372 198.39 42.456 198.114 42.576C197.838 42.696 197.61 42.87 197.43 43.098C197.262 43.314 197.178 43.614 197.178 43.998C197.178 44.25 197.226 44.466 197.322 44.646C197.43 44.814 197.562 44.952 197.718 45.06C197.886 45.168 198.078 45.246 198.294 45.294C198.51 45.342 198.738 45.366 198.978 45.366C199.482 45.366 199.914 45.3 200.274 45.168C200.634 45.024 200.928 44.85 201.156 44.646C201.384 44.43 201.552 44.202 201.66 43.962C201.768 43.71 201.822 43.476 201.822 43.26V41.694ZM206.045 33.648H207.575V46.5H206.045V33.648ZM210.26 33.648H211.79V46.5H210.26V33.648ZM220.848 40.956C220.824 40.596 220.74 40.254 220.596 39.93C220.464 39.606 220.278 39.33 220.038 39.102C219.81 38.862 219.534 38.676 219.21 38.544C218.898 38.4 218.55 38.328 218.166 38.328C217.77 38.328 217.41 38.4 217.086 38.544C216.774 38.676 216.504 38.862 216.276 39.102C216.048 39.342 215.868 39.624 215.736 39.948C215.604 40.26 215.526 40.596 215.502 40.956H220.848ZM222.324 43.548C222.12 44.592 221.67 45.378 220.974 45.906C220.278 46.434 219.402 46.698 218.346 46.698C217.602 46.698 216.954 46.578 216.402 46.338C215.862 46.098 215.406 45.762 215.034 45.33C214.662 44.898 214.38 44.382 214.188 43.782C214.008 43.182 213.906 42.528 213.882 41.82C213.882 41.112 213.99 40.464 214.206 39.876C214.422 39.288 214.722 38.778 215.106 38.346C215.502 37.914 215.964 37.578 216.492 37.338C217.032 37.098 217.62 36.978 218.256 36.978C219.084 36.978 219.768 37.152 220.308 37.5C220.86 37.836 221.298 38.268 221.622 38.796C221.958 39.324 222.186 39.9 222.306 40.524C222.438 41.148 222.492 41.742 222.468 42.306H215.502C215.49 42.714 215.538 43.104 215.646 43.476C215.754 43.836 215.928 44.16 216.168 44.448C216.408 44.724 216.714 44.946 217.086 45.114C217.458 45.282 217.896 45.366 218.4 45.366C219.048 45.366 219.576 45.216 219.984 44.916C220.404 44.616 220.68 44.16 220.812 43.548H222.324ZM226.403 37.194H228.257V38.544H226.403V44.322C226.403 44.502 226.415 44.646 226.439 44.754C226.475 44.862 226.535 44.946 226.619 45.006C226.703 45.066 226.817 45.108 226.961 45.132C227.117 45.144 227.315 45.15 227.555 45.15H228.257V46.5H227.087C226.691 46.5 226.349 46.476 226.061 46.428C225.785 46.368 225.557 46.266 225.377 46.122C225.209 45.978 225.083 45.774 224.999 45.51C224.915 45.246 224.873 44.898 224.873 44.466V38.544H223.289V37.194H224.873V34.404H226.403V37.194Z" fill="white"/>
<rect x="0.5" y="0.5" width="355" height="79" rx="3.5" stroke="#0ABAB5"/>
<defs>
<linearGradient id="paint0_linear_916_501" x1="80" y1="20" x2="80" y2="60" gradientUnits="userSpaceOnUse">
<stop stop-color="#1FD1FF"/>
<stop offset="1" stop-color="#1BB8FF"/>
</linearGradient>
<radialGradient id="paint1_radial_916_501" cx="0" cy="0" r="1" gradientUnits="userSpaceOnUse" gradientTransform="translate(61.9107 58.4844) rotate(-45.1556) scale(64.1474 65.107)">
<stop stop-color="#232DE3"/>
<stop offset="1" stop-color="#232DE3" stop-opacity="0"/>
</radialGradient>
<radialGradient id="paint2_radial_916_501" cx="0" cy="0" r="1" gradientUnits="userSpaceOnUse" gradientTransform="translate(97.8456 59.7716) rotate(-138.45) scale(40.1083 61.1539)">
<stop stop-color="#8B4DFF"/>
<stop offset="1" stop-color="#8B4DFF" stop-opacity="0"/>
</radialGradient>
<radialGradient id="paint3_radial_916_501" cx="0" cy="0" r="1" gradientUnits="userSpaceOnUse" gradientTransform="translate(79.6668 20.2967) rotate(90) scale(31.5366 76.5164)">
<stop stop-color="#24D5FF"/>
<stop offset="1" stop-color="#1BB8FF" stop-opacity="0"/>
</radialGradient>
</defs>
</svg>
