<svg width="95" height="95" viewBox="0 0 95 95" fill="none" xmlns="http://www.w3.org/2000/svg">
<path d="M47.0588 94.1176C73.0487 94.1176 94.1176 73.0487 94.1176 47.0588C94.1176 21.069 73.0487 0 47.0588 0C21.069 0 0 21.069 0 47.0588C0 73.0487 21.069 94.1176 47.0588 94.1176Z" fill="#2E3148"/>
<path d="M47.0636 74.3616C62.1442 74.3616 74.3694 62.1364 74.3694 47.0558C74.3694 31.9752 62.1442 19.75 47.0636 19.75C31.983 19.75 19.7578 31.9752 19.7578 47.0558C19.7578 62.1364 31.983 74.3616 47.0636 74.3616Z" fill="#1B1E36"/>
<path d="M47.0563 51.8977C49.7301 51.8977 51.8977 49.7301 51.8977 47.0563C51.8977 44.3824 49.7301 42.2148 47.0563 42.2148C44.3824 42.2148 42.2148 44.3824 42.2148 47.0563C42.2148 49.7301 44.3824 51.8977 47.0563 51.8977Z" fill="#B7B9C8"/>
<path d="M82.7584 67.7788C85.307 63.3828 71.4293 50.5823 51.7751 39.1875C32.1209 27.7926 14.0938 22.1268 11.5474 26.5303C9.00097 30.9338 22.8764 43.7269 42.5419 55.1217C62.2074 66.5165 80.2119 72.1827 82.7584 67.7788ZM13.2362 28.2289C12.8597 27.3363 13.6545 27.1214 13.6545 27.1214C17.1729 26.4569 22.1152 27.9711 22.1152 27.9711C35.5607 31.0329 59.536 46.0508 59.536 46.0508C77.9953 58.9676 80.8263 64.6572 81.2506 66.2722C81.2937 66.4378 81.277 66.6134 81.2033 66.7679C81.1296 66.9224 81.0037 67.0459 80.8478 67.1166C78.9229 67.9979 73.7676 66.6848 73.7676 66.6848C57.878 62.4243 45.1704 54.6184 45.1704 54.6184C33.7525 48.4601 22.4623 38.9845 22.4623 38.9845C13.8834 31.7613 13.2389 28.2387 13.2389 28.2387L13.2362 28.2289Z" fill="#6F7390"/>
<path d="M82.8482 26.6739C80.319 22.2662 62.2895 27.8628 42.5658 39.1727C22.8421 50.4827 8.9293 63.2251 11.4565 67.6309C13.9838 72.0367 32.0152 66.442 51.7389 55.1321C71.4626 43.8221 85.3754 31.0797 82.8482 26.6739V26.6739ZM13.7899 67.0263C12.8216 66.9043 13.0404 66.1084 13.0404 66.1084C14.2281 62.7311 18.0079 59.2104 18.0079 59.2104C27.3982 49.1074 52.4094 35.8824 52.4094 35.8824C72.8344 26.3795 79.1787 26.7804 80.7881 27.2236C80.9533 27.2697 81.0969 27.3727 81.1933 27.5146C81.2898 27.6564 81.333 27.8277 81.3152 27.9983C81.1217 30.1066 77.3935 33.9089 77.3935 33.9089C65.756 45.5264 52.6281 52.6123 52.6281 52.6123C41.5663 59.4076 27.7084 64.4369 27.7084 64.4369C17.1638 68.2366 13.7903 67.0263 13.7903 67.0263H13.7899Z" fill="#6F7390"/>
<path d="M47.1522 6.00391C42.0722 6.00391 37.9531 24.4284 37.9531 47.1563C37.9531 69.8842 42.0722 88.3087 47.1522 88.3087C52.2321 88.3087 56.3512 69.8842 56.3512 47.1563C56.3512 24.4284 52.2321 6.00391 47.1522 6.00391ZM47.7873 85.9862C47.2064 86.761 46.6255 86.1797 46.6255 86.1797C44.286 83.4691 43.1162 78.4335 43.1162 78.4335C39.0242 65.2649 39.9982 36.9908 39.9982 36.9908C41.9213 14.5441 45.4196 9.24155 46.61 8.06433C46.7316 7.94418 46.8917 7.87076 47.062 7.85699C47.2324 7.84322 47.4022 7.88997 47.5415 7.98904C49.2688 9.21294 50.7175 14.3314 50.7175 14.3314C54.9955 30.2113 54.6081 45.123 54.6081 45.123C54.9955 58.098 52.4644 72.6223 52.4644 72.6223C50.5161 83.6604 47.7873 85.9862 47.7873 85.9862Z" fill="#6F7390"/>
<path d="M20.816 41.2472C22.3669 41.2472 23.6242 39.9466 23.6242 38.3423C23.6242 36.738 22.3669 35.4375 20.816 35.4375C19.2651 35.4375 18.0078 36.738 18.0078 38.3423C18.0078 39.9466 19.2651 41.2472 20.816 41.2472Z" fill="#B7B9C8"/>
<path d="M66.9093 31.3741C68.46 31.3741 69.717 30.0736 69.717 28.4693C69.717 26.865 68.46 25.5645 66.9093 25.5645C65.3586 25.5645 64.1016 26.865 64.1016 28.4693C64.1016 30.0736 65.3586 31.3741 66.9093 31.3741Z" fill="#B7B9C8"/>
<path d="M41.3434 76.88C42.8944 76.88 44.1517 75.5795 44.1517 73.9752C44.1517 72.3709 42.8944 71.0703 41.3434 71.0703C39.7925 71.0703 38.5352 72.3709 38.5352 73.9752C38.5352 75.5795 39.7925 76.88 41.3434 76.88Z" fill="#B7B9C8"/>
</svg>
