<svg width="89" height="89" viewBox="0 0 89 89" fill="none" xmlns="http://www.w3.org/2000/svg">
<g id="injective-inj-logo 1" clip-path="url(#clip0_898_365)">
<path id="Vector" d="M10.8135 15.3574C11.3658 14.6725 11.9403 14.0097 12.5147 13.3469C12.5368 13.3249 12.603 13.3028 12.6251 13.2807C12.6693 13.2144 12.7577 13.1702 12.824 13.1039L12.8682 13.0376C13.2658 12.6621 13.7077 12.2644 14.1937 11.8888C15.9612 10.5632 17.7728 9.54695 19.6949 8.86206C25.881 6.69695 32.7519 8.02253 38.1426 13.126C45.6763 20.1737 44.9914 31.5516 38.9821 39.1074C31.3821 50.3749 18.3472 66.083 36.3973 80.1562C39.6449 82.6969 42.0531 84.7737 52.2821 87.7342C45.588 88.9714 39.3798 88.5737 32.4868 86.8283C27.6042 84.0667 19.9158 78.1679 17.3089 70.1923C13.3542 58.1074 24.2682 40.0132 29.5263 33.0539C36.7507 23.4214 25.0635 12.9935 16.4251 24.6365C11.9623 30.7121 4.07514 47.8783 6.81467 60.626C8.40537 67.8504 10.5484 73.1086 19.01 80.3551C17.4414 79.4272 15.917 78.3888 14.4368 77.1958C-5.20394 58.8807 -2.92836 30.5574 10.8135 15.3574Z" fill="url(#paint0_linear_898_365)" fill-opacity="0.85"/>
<path id="Vector_2" d="M77.7499 73.1956C77.1975 73.8804 76.6231 74.5432 76.0487 75.206C76.0266 75.2281 75.9603 75.2502 75.9382 75.2723C75.894 75.3386 75.8057 75.3828 75.7394 75.449L75.6952 75.5153C75.2975 75.8909 74.8557 76.2886 74.3696 76.6421C72.6022 77.9676 70.7906 78.9839 68.8685 79.6688C62.6824 81.8339 55.8115 80.5083 50.4208 75.4049C42.8871 68.3572 43.5719 56.9793 49.5813 49.4235C57.1813 38.156 70.2161 22.4479 52.1661 8.37462C48.9185 5.83392 46.5103 3.75718 36.2812 0.796715C42.9754 -0.440494 49.1836 -0.0428196 56.0766 1.70253C60.9592 4.46416 68.6475 10.363 71.2545 18.3386C75.2092 30.4235 64.2952 48.5176 59.0371 55.4769C51.8126 65.1095 63.4999 75.5374 72.1382 63.8944C76.6452 57.8188 84.5324 40.6525 81.7929 27.9049C80.2022 20.6804 78.0592 15.4223 69.5975 8.17578C71.1661 9.10369 72.6906 10.1421 74.1708 11.3351C93.7673 29.6723 91.4917 57.9956 77.7499 73.1956Z" fill="url(#paint1_linear_898_365)" fill-opacity="0.85"/>
</g>
<defs>
<linearGradient id="paint0_linear_898_365" x1="0.098389" y1="48.1737" x2="88.4705" y2="48.1737" gradientUnits="userSpaceOnUse">
<stop stop-color="#0082FA"/>
<stop offset="1" stop-color="#00F2FE"/>
</linearGradient>
<linearGradient id="paint1_linear_898_365" x1="0.0928773" y1="40.3793" x2="88.465" y2="40.3793" gradientUnits="userSpaceOnUse">
<stop stop-color="#0082FA"/>
<stop offset="1" stop-color="#00F2FE"/>
</linearGradient>
<clipPath id="clip0_898_365">
<rect width="88.3721" height="88.3721" fill="white" transform="translate(0.09375 0.0917969)"/>
</clipPath>
</defs>
</svg>
