<svg width="89" height="89" viewBox="0 0 89 89" fill="none" xmlns="http://www.w3.org/2000/svg">
<g id="Frame 48095877">
<g id="Group 48095806">
<circle id="Ellipse 464" cx="44.7212" cy="44.4165" r="44.186" fill="white"/>
</g>
<g id="Group">
<path id="Vector" d="M33.4215 36.9299C34.234 36.4656 35.2786 36.4656 36.2072 36.9299L42.7072 40.7602L47.1179 43.1977L53.5017 47.0281C54.3142 47.4923 55.3589 47.4923 56.2874 47.0281L61.2785 44.0102C62.091 43.5459 62.6713 42.6174 62.6713 41.5727V35.7692C62.6713 34.8406 62.2071 33.9121 61.2785 33.3317L56.2874 30.4299C55.475 29.9657 54.4303 29.9657 53.5017 30.4299L48.5107 33.4478C47.6982 33.9121 47.1179 34.8406 47.1179 35.8853V39.7156L42.7072 37.162V33.2156C42.7072 32.2871 43.1714 31.3585 44.1 30.7781L53.3857 25.3228C54.1982 24.8585 55.2428 24.8585 56.1714 25.3228L65.6892 30.8942C66.6177 31.3585 67.082 32.2871 67.082 33.2156V44.1263C67.082 45.0549 66.6177 45.9834 65.6892 46.5638L56.2874 52.0191C55.475 52.4834 54.4303 52.4834 53.5017 52.0191L47.1179 48.3048L42.7072 45.7513L36.3233 42.037C35.5108 41.5727 34.4661 41.5727 33.5376 42.037L28.5465 44.9388C27.734 45.4031 27.1537 46.3316 27.1537 47.3763V53.1798C27.1537 54.1084 27.618 55.0369 28.5465 55.6173L33.4215 58.5191C34.234 58.9834 35.2786 58.9834 36.2072 58.5191L41.1982 55.6173C42.0107 55.153 42.5911 54.2245 42.5911 53.1798V49.4655L47.0018 52.0191V55.8494C47.0018 56.778 46.5375 57.7066 45.6089 58.2869L36.2072 63.7423C35.3947 64.2065 34.3501 64.2065 33.4215 63.7423L24.0198 58.2869C23.2073 57.8226 22.6269 56.8941 22.6269 55.8494V44.8227C22.6269 43.8942 23.0912 42.9656 24.0198 42.3852L33.4215 36.9299Z" fill="#8247E5"/>
</g>
</g>
</svg>
