<svg width="356" height="81" viewBox="0 0 356 81" fill="none" xmlns="http://www.w3.org/2000/svg">
<rect x="0.5" y="0.5" width="355" height="80" rx="3.5" fill="#222222"/>
<g clip-path="url(#clip0_916_502)">
<path fill-rule="evenodd" clip-rule="evenodd" d="M71.4648 55.685L76.6654 57.0648V55.2605L77.0899 54.8359H80.0616V56.9586V58.4444H76.8777L72.9507 56.7463L71.4648 55.685Z" fill="#CDBDB2"/>
<path fill-rule="evenodd" clip-rule="evenodd" d="M88.4453 55.685L83.351 57.0648V55.2605L82.9264 54.8359H79.9547V56.9586V58.4444H83.1387L87.0655 56.7463L88.4453 55.685Z" fill="#CDBDB2"/>
<path fill-rule="evenodd" clip-rule="evenodd" d="M77.0886 51.7593L76.6641 55.2615L77.1946 54.837H82.7135L83.3503 55.2615L82.9258 51.7593L82.0767 51.2285L77.8314 51.3347L77.0886 51.7593Z" fill="#393939"/>
<path fill-rule="evenodd" clip-rule="evenodd" d="M74.2227 28.0918L76.7698 34.0352L77.9374 51.3348H82.0764L83.35 34.0352L85.6849 28.0918H74.2227Z" fill="#F89C35"/>
<path fill-rule="evenodd" clip-rule="evenodd" d="M63.0772 41.1449L60.1055 49.7415L67.5347 49.317H72.3106V45.6024L72.0983 37.9609L71.037 38.81L63.0772 41.1449Z" fill="#F89D35"/>
<path fill-rule="evenodd" clip-rule="evenodd" d="M68.6992 42.0996L77.402 42.3119L76.447 46.7694L72.3077 45.7081L68.6992 42.0996Z" fill="#D87C30"/>
<path fill-rule="evenodd" clip-rule="evenodd" d="M68.6992 42.207L72.3077 45.6033V48.9995L68.6992 42.207Z" fill="#EA8D3A"/>
<path fill-rule="evenodd" clip-rule="evenodd" d="M72.3125 45.707L76.5578 46.7684L77.9376 51.3321L76.9823 51.8627L72.3125 49.1033V45.707Z" fill="#F89D35"/>
<path fill-rule="evenodd" clip-rule="evenodd" d="M72.3139 49.1035L71.4648 55.6837L77.0899 51.7569L72.3139 49.1035Z" fill="#EB8F35"/>
<path fill-rule="evenodd" clip-rule="evenodd" d="M77.4051 42.3145L77.9358 51.3358L76.3438 46.719L77.4051 42.3145Z" fill="#EA8E3A"/>
<path fill-rule="evenodd" clip-rule="evenodd" d="M67.4258 49.2097L72.3079 49.1035L71.4588 55.6837L67.4258 49.2097Z" fill="#D87C30"/>
<path fill-rule="evenodd" clip-rule="evenodd" d="M62.4404 58.5506L71.4615 55.6849L67.4285 49.2109L60.1055 49.7415L62.4404 58.5506Z" fill="#EB8F35"/>
<path fill-rule="evenodd" clip-rule="evenodd" d="M76.7653 34.0352L72.2017 37.8559L68.6992 42.1012L77.402 42.4197L76.7653 34.0352Z" fill="#E8821E"/>
<path fill-rule="evenodd" clip-rule="evenodd" d="M71.4648 55.6846L77.0899 51.7578L76.6654 55.154V57.0644L72.8447 56.3214L71.4648 55.6846Z" fill="#DFCEC3"/>
<path fill-rule="evenodd" clip-rule="evenodd" d="M88.4453 55.6846L82.9264 51.7578L83.351 55.154V57.0644L87.1717 56.3214L88.4453 55.6846Z" fill="#DFCEC3"/>
<path fill-rule="evenodd" clip-rule="evenodd" d="M75.0668 44.2207L76.2344 46.6618L72.0951 45.6005L75.0668 44.2207Z" fill="#393939"/>
<path fill-rule="evenodd" clip-rule="evenodd" d="M62.3359 23.1016L76.7699 34.0331L74.329 28.0897L62.3359 23.1016Z" fill="#E88F35"/>
<path fill-rule="evenodd" clip-rule="evenodd" d="M62.3362 23.1016L60.4258 28.9388L61.4871 35.3068L60.7442 35.7313L61.8055 36.6865L60.9564 37.4294L62.1239 38.4907L61.381 39.1275L63.0791 41.2501L71.039 38.8091C74.9305 35.6959 76.8409 34.1039 76.7701 34.0332C76.6994 33.9624 71.888 30.3185 62.3362 23.1016Z" fill="#8E5A30"/>
<path fill-rule="evenodd" clip-rule="evenodd" d="M96.8291 41.1429L99.8008 49.7395L92.3715 49.315H87.5957V45.6005L87.808 37.959L88.8693 38.808L96.8291 41.1429Z" fill="#F89D35"/>
<path fill-rule="evenodd" clip-rule="evenodd" d="M91.207 42.0977L82.5042 42.3099L83.4593 46.7675L87.5985 45.7061L91.207 42.0977Z" fill="#D87C30"/>
<path fill-rule="evenodd" clip-rule="evenodd" d="M91.207 42.2051L87.5985 45.6013V48.9975L91.207 42.2051Z" fill="#EA8D3A"/>
<path fill-rule="evenodd" clip-rule="evenodd" d="M87.5938 45.7051L83.3485 46.7664L81.9687 51.3302L82.9239 51.8607L87.5938 49.1013V45.7051Z" fill="#F89D35"/>
<path fill-rule="evenodd" clip-rule="evenodd" d="M87.5923 49.1016L88.4414 55.6818L82.9225 51.861L87.5923 49.1016Z" fill="#EB8F35"/>
<path fill-rule="evenodd" clip-rule="evenodd" d="M82.5012 42.3086L81.9704 51.3299L83.5625 46.7131L82.5012 42.3086Z" fill="#EA8E3A"/>
<path fill-rule="evenodd" clip-rule="evenodd" d="M92.4805 49.2078L87.5984 49.1016L88.4475 55.6818L92.4805 49.2078Z" fill="#D87C30"/>
<path fill-rule="evenodd" clip-rule="evenodd" d="M97.4659 58.5486L88.4447 55.6829L92.4778 49.209L99.8008 49.7395L97.4659 58.5486Z" fill="#EB8F35"/>
<path fill-rule="evenodd" clip-rule="evenodd" d="M83.141 34.0332L87.7046 37.854L91.207 42.0992L82.5042 42.4177L83.141 34.0332Z" fill="#E8821E"/>
<path fill-rule="evenodd" clip-rule="evenodd" d="M84.8394 44.2188L83.6719 46.6599L87.8111 45.5986L84.8394 44.2188Z" fill="#393939"/>
<path fill-rule="evenodd" clip-rule="evenodd" d="M97.5703 23.0996L83.1364 34.0311L85.5773 28.0877L97.5703 23.0996Z" fill="#E88F35"/>
<path fill-rule="evenodd" clip-rule="evenodd" d="M97.5701 23.0996L99.4805 28.9369L98.4191 35.3048L99.1621 35.7293L98.1008 36.6845L98.9498 37.4274L97.7824 38.4888L98.5253 39.1256L96.8272 41.2482L88.8673 38.8072C84.9758 35.6939 83.0654 34.102 83.1361 34.0312C83.2069 33.9605 88.0182 30.3166 97.5701 23.0996Z" fill="#8E5A30"/>
</g>
<path d="M131.44 34.4781H133.78L137.83 45.2781L141.898 34.4781H144.238V47.3301H142.618V36.6381H142.582L138.568 47.3301H137.11L133.096 36.6381H133.06V47.3301H131.44V34.4781ZM153.519 41.7861C153.495 41.4261 153.411 41.0841 153.267 40.7601C153.135 40.4361 152.949 40.1601 152.709 39.9321C152.481 39.6921 152.205 39.5061 151.881 39.3741C151.569 39.2301 151.221 39.1581 150.837 39.1581C150.441 39.1581 150.081 39.2301 149.757 39.3741C149.445 39.5061 149.175 39.6921 148.947 39.9321C148.719 40.1721 148.539 40.4541 148.407 40.7781C148.275 41.0901 148.197 41.4261 148.173 41.7861H153.519ZM154.995 44.3781C154.791 45.4221 154.341 46.2081 153.645 46.7361C152.949 47.2641 152.073 47.5281 151.017 47.5281C150.273 47.5281 149.625 47.4081 149.073 47.1681C148.533 46.9281 148.077 46.5921 147.705 46.1601C147.333 45.7281 147.051 45.2121 146.859 44.6121C146.679 44.0121 146.577 43.3581 146.553 42.6501C146.553 41.9421 146.661 41.2941 146.877 40.7061C147.093 40.1181 147.393 39.6081 147.777 39.1761C148.173 38.7441 148.635 38.4081 149.163 38.1681C149.703 37.9281 150.291 37.8081 150.927 37.8081C151.755 37.8081 152.439 37.9821 152.979 38.3301C153.531 38.6661 153.969 39.0981 154.293 39.6261C154.629 40.1541 154.857 40.7301 154.977 41.3541C155.109 41.9781 155.163 42.5721 155.139 43.1361H148.173C148.161 43.5441 148.209 43.9341 148.317 44.3061C148.425 44.6661 148.599 44.9901 148.839 45.2781C149.079 45.5541 149.385 45.7761 149.757 45.9441C150.129 46.1121 150.567 46.1961 151.071 46.1961C151.719 46.1961 152.247 46.0461 152.655 45.7461C153.075 45.4461 153.351 44.9901 153.483 44.3781H154.995ZM159.074 38.0241H160.928V39.3741H159.074V45.1521C159.074 45.3321 159.086 45.4761 159.11 45.5841C159.146 45.6921 159.206 45.7761 159.29 45.8361C159.374 45.8961 159.488 45.9381 159.632 45.9621C159.788 45.9741 159.986 45.9801 160.226 45.9801H160.928V47.3301H159.758C159.362 47.3301 159.02 47.3061 158.732 47.2581C158.456 47.1981 158.228 47.0961 158.048 46.9521C157.88 46.8081 157.754 46.6041 157.67 46.3401C157.586 46.0761 157.544 45.7281 157.544 45.2961V39.3741H155.96V38.0241H157.544V35.2341H159.074V38.0241ZM171.097 47.2941C170.833 47.4501 170.467 47.5281 169.999 47.5281C169.603 47.5281 169.285 47.4201 169.045 47.2041C168.817 46.9761 168.703 46.6101 168.703 46.1061C168.283 46.6101 167.791 46.9761 167.227 47.2041C166.675 47.4201 166.075 47.5281 165.427 47.5281C165.007 47.5281 164.605 47.4801 164.221 47.3841C163.849 47.2881 163.525 47.1381 163.249 46.9341C162.973 46.7301 162.751 46.4661 162.583 46.1421C162.427 45.8061 162.349 45.4041 162.349 44.9361C162.349 44.4081 162.439 43.9761 162.619 43.6401C162.799 43.3041 163.033 43.0341 163.321 42.8301C163.621 42.6141 163.957 42.4521 164.329 42.3441C164.713 42.2361 165.103 42.1461 165.499 42.0741C165.919 41.9901 166.315 41.9301 166.687 41.8941C167.071 41.8461 167.407 41.7861 167.695 41.7141C167.983 41.6301 168.211 41.5161 168.379 41.3721C168.547 41.2161 168.631 40.9941 168.631 40.7061C168.631 40.3701 168.565 40.1001 168.433 39.8961C168.313 39.6921 168.151 39.5361 167.947 39.4281C167.755 39.3201 167.533 39.2481 167.281 39.2121C167.041 39.1761 166.801 39.1581 166.561 39.1581C165.913 39.1581 165.373 39.2841 164.941 39.5361C164.509 39.7761 164.275 40.2381 164.239 40.9221H162.709C162.733 40.3461 162.853 39.8601 163.069 39.4641C163.285 39.0681 163.573 38.7501 163.933 38.5101C164.293 38.2581 164.701 38.0781 165.157 37.9701C165.625 37.8621 166.123 37.8081 166.651 37.8081C167.071 37.8081 167.485 37.8381 167.893 37.8981C168.313 37.9581 168.691 38.0841 169.027 38.2761C169.363 38.4561 169.633 38.7141 169.837 39.0501C170.041 39.3861 170.143 39.8241 170.143 40.3641V45.1521C170.143 45.5121 170.161 45.7761 170.197 45.9441C170.245 46.1121 170.389 46.1961 170.629 46.1961C170.761 46.1961 170.917 46.1661 171.097 46.1061V47.2941ZM168.613 42.5241C168.421 42.6681 168.169 42.7761 167.857 42.8481C167.545 42.9081 167.215 42.9621 166.867 43.0101C166.531 43.0461 166.189 43.0941 165.841 43.1541C165.493 43.2021 165.181 43.2861 164.905 43.4061C164.629 43.5261 164.401 43.7001 164.221 43.9281C164.053 44.1441 163.969 44.4441 163.969 44.8281C163.969 45.0801 164.017 45.2961 164.113 45.4761C164.221 45.6441 164.353 45.7821 164.509 45.8901C164.677 45.9981 164.869 46.0761 165.085 46.1241C165.301 46.1721 165.529 46.1961 165.769 46.1961C166.273 46.1961 166.705 46.1301 167.065 45.9981C167.425 45.8541 167.719 45.6801 167.947 45.4761C168.175 45.2601 168.343 45.0321 168.451 44.7921C168.559 44.5401 168.613 44.3061 168.613 44.0901V42.5241ZM173.034 34.4781H175.374L179.424 45.2781L183.492 34.4781H185.832V47.3301H184.212V36.6381H184.176L180.162 47.3301H178.704L174.69 36.6381H174.654V47.3301H173.034V34.4781ZM196.895 47.2941C196.631 47.4501 196.265 47.5281 195.797 47.5281C195.401 47.5281 195.083 47.4201 194.843 47.2041C194.615 46.9761 194.501 46.6101 194.501 46.1061C194.081 46.6101 193.589 46.9761 193.025 47.2041C192.473 47.4201 191.873 47.5281 191.225 47.5281C190.805 47.5281 190.403 47.4801 190.019 47.3841C189.647 47.2881 189.323 47.1381 189.047 46.9341C188.771 46.7301 188.549 46.4661 188.381 46.1421C188.225 45.8061 188.147 45.4041 188.147 44.9361C188.147 44.4081 188.237 43.9761 188.417 43.6401C188.597 43.3041 188.831 43.0341 189.119 42.8301C189.419 42.6141 189.755 42.4521 190.127 42.3441C190.511 42.2361 190.901 42.1461 191.297 42.0741C191.717 41.9901 192.113 41.9301 192.485 41.8941C192.869 41.8461 193.205 41.7861 193.493 41.7141C193.781 41.6301 194.009 41.5161 194.177 41.3721C194.345 41.2161 194.429 40.9941 194.429 40.7061C194.429 40.3701 194.363 40.1001 194.231 39.8961C194.111 39.6921 193.949 39.5361 193.745 39.4281C193.553 39.3201 193.331 39.2481 193.079 39.2121C192.839 39.1761 192.599 39.1581 192.359 39.1581C191.711 39.1581 191.171 39.2841 190.739 39.5361C190.307 39.7761 190.073 40.2381 190.037 40.9221H188.507C188.531 40.3461 188.651 39.8601 188.867 39.4641C189.083 39.0681 189.371 38.7501 189.731 38.5101C190.091 38.2581 190.499 38.0781 190.955 37.9701C191.423 37.8621 191.921 37.8081 192.449 37.8081C192.869 37.8081 193.283 37.8381 193.691 37.8981C194.111 37.9581 194.489 38.0841 194.825 38.2761C195.161 38.4561 195.431 38.7141 195.635 39.0501C195.839 39.3861 195.941 39.8241 195.941 40.3641V45.1521C195.941 45.5121 195.959 45.7761 195.995 45.9441C196.043 46.1121 196.187 46.1961 196.427 46.1961C196.559 46.1961 196.715 46.1661 196.895 46.1061V47.2941ZM194.411 42.5241C194.219 42.6681 193.967 42.7761 193.655 42.8481C193.343 42.9081 193.013 42.9621 192.665 43.0101C192.329 43.0461 191.987 43.0941 191.639 43.1541C191.291 43.2021 190.979 43.2861 190.703 43.4061C190.427 43.5261 190.199 43.7001 190.019 43.9281C189.851 44.1441 189.767 44.4441 189.767 44.8281C189.767 45.0801 189.815 45.2961 189.911 45.4761C190.019 45.6441 190.151 45.7821 190.307 45.8901C190.475 45.9981 190.667 46.0761 190.883 46.1241C191.099 46.1721 191.327 46.1961 191.567 46.1961C192.071 46.1961 192.503 46.1301 192.863 45.9981C193.223 45.8541 193.517 45.6801 193.745 45.4761C193.973 45.2601 194.141 45.0321 194.249 44.7921C194.357 44.5401 194.411 44.3061 194.411 44.0901V42.5241ZM199.48 44.3961C199.492 44.7321 199.57 45.0201 199.714 45.2601C199.858 45.4881 200.044 45.6741 200.272 45.8181C200.512 45.9501 200.776 46.0461 201.064 46.1061C201.364 46.1661 201.67 46.1961 201.982 46.1961C202.222 46.1961 202.474 46.1781 202.738 46.1421C203.002 46.1061 203.242 46.0401 203.458 45.9441C203.686 45.8481 203.872 45.7101 204.016 45.5301C204.16 45.3381 204.232 45.0981 204.232 44.8101C204.232 44.4141 204.082 44.1141 203.782 43.9101C203.482 43.7061 203.104 43.5441 202.648 43.4241C202.204 43.2921 201.718 43.1781 201.19 43.0821C200.662 42.9741 200.17 42.8301 199.714 42.6501C199.27 42.4581 198.898 42.1941 198.598 41.8581C198.298 41.5221 198.148 41.0541 198.148 40.4541C198.148 39.9861 198.25 39.5841 198.454 39.2481C198.67 38.9121 198.94 38.6421 199.264 38.4381C199.6 38.2221 199.972 38.0661 200.38 37.9701C200.8 37.8621 201.214 37.8081 201.622 37.8081C202.15 37.8081 202.636 37.8561 203.08 37.9521C203.524 38.0361 203.914 38.1921 204.25 38.4201C204.598 38.6361 204.874 38.9361 205.078 39.3201C205.282 39.6921 205.402 40.1601 205.438 40.7241H203.908C203.884 40.4241 203.806 40.1781 203.674 39.9861C203.542 39.7821 203.374 39.6201 203.17 39.5001C202.966 39.3801 202.738 39.2961 202.486 39.2481C202.246 39.1881 202 39.1581 201.748 39.1581C201.52 39.1581 201.286 39.1761 201.046 39.2121C200.818 39.2481 200.608 39.3141 200.416 39.4101C200.224 39.4941 200.068 39.6141 199.948 39.7701C199.828 39.9141 199.768 40.1061 199.768 40.3461C199.768 40.6101 199.858 40.8321 200.038 41.0121C200.23 41.1801 200.47 41.3241 200.758 41.4441C201.046 41.5521 201.37 41.6481 201.73 41.7321C202.09 41.8041 202.45 41.8821 202.81 41.9661C203.194 42.0501 203.566 42.1521 203.926 42.2721C204.298 42.3921 204.622 42.5541 204.898 42.7581C205.186 42.9501 205.414 43.1961 205.582 43.4961C205.762 43.7961 205.852 44.1681 205.852 44.6121C205.852 45.1761 205.732 45.6441 205.492 46.0161C205.264 46.3881 204.958 46.6881 204.574 46.9161C204.202 47.1441 203.776 47.3001 203.296 47.3841C202.828 47.4801 202.36 47.5281 201.892 47.5281C201.376 47.5281 200.884 47.4741 200.416 47.3661C199.948 47.2581 199.534 47.0841 199.174 46.8441C198.814 46.5921 198.526 46.2681 198.31 45.8721C198.094 45.4641 197.974 44.9721 197.95 44.3961H199.48ZM207.859 34.4781H209.389V42.0921L213.637 38.0241H215.689L211.999 41.4081L215.959 47.3301H214.015L210.829 42.4701L209.389 43.8021V47.3301H207.859V34.4781ZM234.425 47.3301H232.643L229.709 36.5301H229.673L226.703 47.3301H224.921L221.627 34.4781H223.373L225.893 45.1701H225.929L228.809 34.4781H230.663L233.507 45.1701H233.543L236.153 34.4781H237.863L234.425 47.3301ZM247.028 47.2941C246.764 47.4501 246.398 47.5281 245.93 47.5281C245.534 47.5281 245.216 47.4201 244.976 47.2041C244.748 46.9761 244.634 46.6101 244.634 46.1061C244.214 46.6101 243.722 46.9761 243.158 47.2041C242.606 47.4201 242.006 47.5281 241.358 47.5281C240.938 47.5281 240.536 47.4801 240.152 47.3841C239.78 47.2881 239.456 47.1381 239.18 46.9341C238.904 46.7301 238.682 46.4661 238.514 46.1421C238.358 45.8061 238.28 45.4041 238.28 44.9361C238.28 44.4081 238.37 43.9761 238.55 43.6401C238.73 43.3041 238.964 43.0341 239.252 42.8301C239.552 42.6141 239.888 42.4521 240.26 42.3441C240.644 42.2361 241.034 42.1461 241.43 42.0741C241.85 41.9901 242.246 41.9301 242.618 41.8941C243.002 41.8461 243.338 41.7861 243.626 41.7141C243.914 41.6301 244.142 41.5161 244.31 41.3721C244.478 41.2161 244.562 40.9941 244.562 40.7061C244.562 40.3701 244.496 40.1001 244.364 39.8961C244.244 39.6921 244.082 39.5361 243.878 39.4281C243.686 39.3201 243.464 39.2481 243.212 39.2121C242.972 39.1761 242.732 39.1581 242.492 39.1581C241.844 39.1581 241.304 39.2841 240.872 39.5361C240.44 39.7761 240.206 40.2381 240.17 40.9221H238.64C238.664 40.3461 238.784 39.8601 239 39.4641C239.216 39.0681 239.504 38.7501 239.864 38.5101C240.224 38.2581 240.632 38.0781 241.088 37.9701C241.556 37.8621 242.054 37.8081 242.582 37.8081C243.002 37.8081 243.416 37.8381 243.824 37.8981C244.244 37.9581 244.622 38.0841 244.958 38.2761C245.294 38.4561 245.564 38.7141 245.768 39.0501C245.972 39.3861 246.074 39.8241 246.074 40.3641V45.1521C246.074 45.5121 246.092 45.7761 246.128 45.9441C246.176 46.1121 246.32 46.1961 246.56 46.1961C246.692 46.1961 246.848 46.1661 247.028 46.1061V47.2941ZM244.544 42.5241C244.352 42.6681 244.1 42.7761 243.788 42.8481C243.476 42.9081 243.146 42.9621 242.798 43.0101C242.462 43.0461 242.12 43.0941 241.772 43.1541C241.424 43.2021 241.112 43.2861 240.836 43.4061C240.56 43.5261 240.332 43.7001 240.152 43.9281C239.984 44.1441 239.9 44.4441 239.9 44.8281C239.9 45.0801 239.948 45.2961 240.044 45.4761C240.152 45.6441 240.284 45.7821 240.44 45.8901C240.608 45.9981 240.8 46.0761 241.016 46.1241C241.232 46.1721 241.46 46.1961 241.7 46.1961C242.204 46.1961 242.636 46.1301 242.996 45.9981C243.356 45.8541 243.65 45.6801 243.878 45.4761C244.106 45.2601 244.274 45.0321 244.382 44.7921C244.49 44.5401 244.544 44.3061 244.544 44.0901V42.5241ZM248.767 34.4781H250.297V47.3301H248.767V34.4781ZM252.983 34.4781H254.513V47.3301H252.983V34.4781ZM263.57 41.7861C263.546 41.4261 263.462 41.0841 263.318 40.7601C263.186 40.4361 263 40.1601 262.76 39.9321C262.532 39.6921 262.256 39.5061 261.932 39.3741C261.62 39.2301 261.272 39.1581 260.888 39.1581C260.492 39.1581 260.132 39.2301 259.808 39.3741C259.496 39.5061 259.226 39.6921 258.998 39.9321C258.77 40.1721 258.59 40.4541 258.458 40.7781C258.326 41.0901 258.248 41.4261 258.224 41.7861H263.57ZM265.046 44.3781C264.842 45.4221 264.392 46.2081 263.696 46.7361C263 47.2641 262.124 47.5281 261.068 47.5281C260.324 47.5281 259.676 47.4081 259.124 47.1681C258.584 46.9281 258.128 46.5921 257.756 46.1601C257.384 45.7281 257.102 45.2121 256.91 44.6121C256.73 44.0121 256.628 43.3581 256.604 42.6501C256.604 41.9421 256.712 41.2941 256.928 40.7061C257.144 40.1181 257.444 39.6081 257.828 39.1761C258.224 38.7441 258.686 38.4081 259.214 38.1681C259.754 37.9281 260.342 37.8081 260.978 37.8081C261.806 37.8081 262.49 37.9821 263.03 38.3301C263.582 38.6661 264.02 39.0981 264.344 39.6261C264.68 40.1541 264.908 40.7301 265.028 41.3541C265.16 41.9781 265.214 42.5721 265.19 43.1361H258.224C258.212 43.5441 258.26 43.9341 258.368 44.3061C258.476 44.6661 258.65 44.9901 258.89 45.2781C259.13 45.5541 259.436 45.7761 259.808 45.9441C260.18 46.1121 260.618 46.1961 261.122 46.1961C261.77 46.1961 262.298 46.0461 262.706 45.7461C263.126 45.4461 263.402 44.9901 263.534 44.3781H265.046ZM269.125 38.0241H270.979V39.3741H269.125V45.1521C269.125 45.3321 269.137 45.4761 269.161 45.5841C269.197 45.6921 269.257 45.7761 269.341 45.8361C269.425 45.8961 269.539 45.9381 269.683 45.9621C269.839 45.9741 270.037 45.9801 270.277 45.9801H270.979V47.3301H269.809C269.413 47.3301 269.071 47.3061 268.783 47.2581C268.507 47.1981 268.279 47.0961 268.099 46.9521C267.931 46.8081 267.805 46.6041 267.721 46.3401C267.637 46.0761 267.595 45.7281 267.595 45.2961V39.3741H266.011V38.0241H267.595V35.2341H269.125V38.0241Z" fill="white"/>
<rect x="0.5" y="0.5" width="355" height="80" rx="3.5" stroke="#0ABAB5"/>
<defs>
<clipPath id="clip0_916_502">
<rect width="40" height="35.6604" fill="white" transform="translate(60 23)"/>
</clipPath>
</defs>
</svg>
