<svg width="51" height="51" viewBox="0 0 51 51" fill="none" xmlns="http://www.w3.org/2000/svg">
<g id="fluent-mdl2:error">
<path id="Vector" d="M23.9062 0C26.1143 0 28.231 0.282227 30.2563 0.84668C32.2817 1.41113 34.1909 2.20801 35.9839 3.2373C37.7769 4.2666 39.3872 5.51172 40.8149 6.97266C42.2427 8.43359 43.4878 10.0522 44.5503 11.8286C45.6128 13.605 46.418 15.5059 46.9658 17.5312C47.5137 19.5566 47.7959 21.6816 47.8125 23.9062C47.8125 26.1143 47.5303 28.231 46.9658 30.2563C46.4014 32.2817 45.6045 34.1909 44.5752 35.9839C43.5459 37.7769 42.3008 39.3872 40.8398 40.8149C39.3789 42.2427 37.7603 43.4878 35.9839 44.5503C34.2075 45.6128 32.3066 46.418 30.2812 46.9658C28.2559 47.5137 26.1309 47.7959 23.9062 47.8125C21.6982 47.8125 19.5815 47.5303 17.5562 46.9658C15.5308 46.4014 13.6216 45.6045 11.8286 44.5752C10.0356 43.5459 8.42529 42.3008 6.99756 40.8398C5.56982 39.3789 4.32471 37.7603 3.26221 35.9839C2.19971 34.2075 1.39453 32.3066 0.84668 30.2812C0.298828 28.2559 0.0166016 26.1309 0 23.9062C0 21.6982 0.282227 19.5815 0.84668 17.5562C1.41113 15.5308 2.20801 13.6216 3.2373 11.8286C4.2666 10.0356 5.51172 8.42529 6.97266 6.99756C8.43359 5.56982 10.0522 4.32471 11.8286 3.26221C13.605 2.19971 15.5059 1.39453 17.5312 0.84668C19.5566 0.298828 21.6816 0.0166016 23.9062 0ZM23.9062 44.625C25.7988 44.625 27.625 44.376 29.3848 43.8779C31.1445 43.3799 32.7964 42.6826 34.3403 41.7861C35.8843 40.8896 37.2871 39.8105 38.5488 38.5488C39.8105 37.2871 40.8896 35.8926 41.7861 34.3652C42.6826 32.8379 43.3799 31.186 43.8779 29.4097C44.376 27.6333 44.625 25.7988 44.625 23.9062C44.625 22.0137 44.376 20.1875 43.8779 18.4277C43.3799 16.668 42.6826 15.0161 41.7861 13.4722C40.8896 11.9282 39.8105 10.5254 38.5488 9.26367C37.2871 8.00195 35.8926 6.92285 34.3652 6.02637C32.8379 5.12988 31.186 4.43262 29.4097 3.93457C27.6333 3.43652 25.7988 3.1875 23.9062 3.1875C21.9971 3.1875 20.1626 3.43652 18.4028 3.93457C16.6431 4.43262 14.9995 5.12988 13.4722 6.02637C11.9448 6.92285 10.542 8.00195 9.26367 9.26367C7.98535 10.5254 6.90625 11.9199 6.02637 13.4473C5.14648 14.9746 4.44922 16.6265 3.93457 18.4028C3.41992 20.1792 3.1709 22.0137 3.1875 23.9062C3.1875 25.7988 3.43652 27.625 3.93457 29.3848C4.43262 31.1445 5.12988 32.7964 6.02637 34.3403C6.92285 35.8843 8.00195 37.2871 9.26367 38.5488C10.5254 39.8105 11.9199 40.8896 13.4473 41.7861C14.9746 42.6826 16.6265 43.3799 18.4028 43.8779C20.1792 44.376 22.0137 44.625 23.9062 44.625ZM22.3125 12.75H25.5V28.6875H22.3125V12.75ZM22.3125 31.875H25.5V35.0625H22.3125V31.875Z" fill="#FD5E5E"/>
</g>
</svg>
