<svg width="284" height="90" viewBox="0 0 284 90" fill="none" xmlns="http://www.w3.org/2000/svg">
<path d="M74.5116 29.093C74.5116 45.1607 61.3925 58.186 45.2093 58.186C29.0261 58.186 15.907 45.1607 15.907 29.093C15.907 13.0254 29.0261 0 45.2093 0C61.3925 0 74.5116 13.0254 74.5116 29.093ZM16.786 29.093C16.786 44.6786 29.5116 57.3133 45.2093 57.3133C60.907 57.3133 73.6326 44.6786 73.6326 29.093C73.6326 13.5074 60.907 0.87279 45.2093 0.87279C29.5116 0.87279 16.786 13.5074 16.786 29.093Z" fill="#0ABAB5" fill-opacity="0.8"/>
<path d="M76.4936 53.2888C65.0539 64.7285 46.5065 64.7285 35.0668 53.2888C23.627 41.8491 23.627 23.3017 35.0668 11.8619C46.5065 0.422218 65.0539 0.422218 76.4936 11.8619C87.9334 23.3017 87.9334 41.8491 76.4936 53.2888ZM35.6882 12.4833C24.5916 23.5799 24.5916 41.5709 35.6881 52.6674C46.7847 63.7639 64.7757 63.7639 75.8722 52.6674C86.9688 41.5709 86.9688 23.5799 75.8722 12.4833C64.7757 1.38681 46.7847 1.38681 35.6882 12.4833Z" fill="#0ABAB5" fill-opacity="0.8"/>
<path d="M60.907 72.4186C44.6082 72.4186 31.3953 59.2995 31.3953 43.1163C31.3953 26.933 44.6082 13.814 60.907 13.814C77.2058 13.814 90.4186 26.9331 90.4186 43.1163C90.4186 59.2995 77.2058 72.4186 60.907 72.4186ZM60.907 14.693C45.0971 14.693 32.2807 27.4185 32.2807 43.1163C32.2807 58.814 45.0971 71.5395 60.907 71.5395C76.7168 71.5395 89.5333 58.814 89.5333 43.1163C89.5333 27.4185 76.7168 14.693 60.907 14.693Z" fill="#0ABAB5" fill-opacity="0.8"/>
<path d="M36.2618 74.4006C24.8221 62.9609 24.8221 44.4134 36.2618 32.9737C47.7015 21.534 66.249 21.534 77.6887 32.9737C89.1284 44.4134 89.1284 62.9609 77.6887 74.4006C66.249 85.8403 47.7015 85.8403 36.2618 74.4006ZM77.0673 33.5951C65.9708 22.4986 47.9797 22.4986 36.8832 33.5951C25.7867 44.6917 25.7867 62.6827 36.8832 73.7792C47.9797 84.8757 65.9708 84.8757 77.0673 73.7792C88.1638 62.6827 88.1638 44.6917 77.0673 33.5951Z" fill="#0ABAB5" fill-opacity="0.8"/>
<path d="M15.907 60.4884C15.907 44.1895 29.0261 30.9767 45.2093 30.9767C61.3925 30.9767 74.5116 44.1895 74.5116 60.4884C74.5116 76.7872 61.3925 90 45.2093 90C29.0261 90 15.907 76.7872 15.907 60.4884ZM73.6326 60.4884C73.6326 44.6785 60.907 31.8621 45.2093 31.8621C29.5116 31.8621 16.786 44.6785 16.786 60.4884C16.786 76.2982 29.5116 89.1146 45.2093 89.1146C60.907 89.1146 73.6326 76.2982 73.6326 60.4884Z" fill="#0ABAB5" fill-opacity="0.8"/>
<path d="M12.76 34.1687C24.1997 22.729 42.7471 22.729 54.1868 34.1687C65.6266 45.6085 65.6266 64.1559 54.1868 75.5956C42.7471 87.0353 24.1997 87.0353 12.76 75.5956C1.32024 64.1559 1.32024 45.6085 12.76 34.1687ZM53.5654 74.9742C64.662 63.8777 64.662 45.8867 53.5654 34.7901C42.4689 23.6936 24.4779 23.6936 13.3814 34.7901C2.28483 45.8867 2.28483 63.8777 13.3814 74.9742C24.4779 86.0707 42.4689 86.0707 53.5654 74.9742Z" fill="#0ABAB5" fill-opacity="0.8"/>
<path d="M29.5116 13.8139C45.8105 13.814 59.0233 26.9331 59.0233 43.1163C59.0233 59.2995 45.8104 72.4186 29.5116 72.4186C13.2128 72.4186 -2.12217e-06 59.2995 0 43.1163C2.12217e-06 26.933 13.2128 13.8139 29.5116 13.8139ZM29.5116 71.5395C45.3215 71.5395 58.1379 58.814 58.1379 43.1163C58.1379 27.4186 45.3215 14.693 29.5116 14.693C13.7018 14.693 0.88535 27.4185 0.885348 43.1163C0.885346 58.814 13.7018 71.5395 29.5116 71.5395Z" fill="#0ABAB5" fill-opacity="0.8"/>
<path d="M55.3818 10.6669C66.8216 22.1067 66.8216 40.6541 55.3818 52.0938C43.9421 63.5335 25.3947 63.5335 13.955 52.0938C2.51524 40.6541 2.51524 22.1067 13.955 10.6669C25.3947 -0.772777 43.9421 -0.772773 55.3818 10.6669ZM14.5764 51.4724C25.6729 62.5689 43.6639 62.569 54.7604 51.4724C65.857 40.3759 65.857 22.3849 54.7604 11.2883C43.6639 0.191816 25.6729 0.191816 14.5764 11.2883C3.47983 22.3849 3.47983 40.3759 14.5764 51.4724Z" fill="#0ABAB5" fill-opacity="0.8"/>
<path d="M21.3398 54.6758V56.9141H19.582C17.6367 56.9141 16.332 56.625 15.668 56.0469C15.0117 55.4688 14.6836 54.3164 14.6836 52.5898V50.0703C14.6836 48.8906 14.4727 48.0781 14.0508 47.6328C13.6367 47.1797 12.8828 46.9531 11.7891 46.9531H11.0625V44.7148H11.7891C12.8828 44.7148 13.6367 44.4922 14.0508 44.0469C14.4727 43.6016 14.6836 42.7852 14.6836 41.5977V39.0781C14.6836 37.3516 15.0117 36.2031 15.668 35.6328C16.332 35.0547 17.6367 34.7656 19.582 34.7656H21.3398V36.9922H19.8984C19.0859 36.9922 18.543 37.1562 18.2695 37.4844C17.9961 37.8125 17.8594 38.5352 17.8594 39.6523V42.1016C17.8594 43.3906 17.668 44.2969 17.2852 44.8203C16.9023 45.3438 16.2188 45.6797 15.2344 45.8281C16.2188 45.9922 16.9023 46.3398 17.2852 46.8711C17.668 47.4023 17.8594 48.3086 17.8594 49.5898V51.9922C17.8594 53.1172 17.9961 53.8438 18.2695 54.1719C18.543 54.5078 19.0859 54.6758 19.8984 54.6758H21.3398ZM46.875 53H43.418V38.5273H38.9766V35.5039H51.3164V38.5273H46.875V53ZM68.9531 54.6758H70.3711C71.1836 54.6758 71.7305 54.5078 72.0117 54.1719C72.293 53.8359 72.4336 53.1094 72.4336 51.9922V49.5898C72.4336 48.3086 72.625 47.4023 73.0078 46.8711C73.3906 46.3398 74.0703 45.9922 75.0469 45.8281C74.0625 45.6797 73.3789 45.3438 72.9961 44.8203C72.6211 44.2969 72.4336 43.3906 72.4336 42.1016V39.6523C72.4336 38.5508 72.293 37.832 72.0117 37.4961C71.7383 37.1602 71.1914 36.9922 70.3711 36.9922H68.9531V34.7656H70.7109C72.6484 34.7656 73.9414 35.0547 74.5898 35.6328C75.2461 36.2031 75.5742 37.3516 75.5742 39.0781V41.5977C75.5742 42.7773 75.7852 43.5938 76.207 44.0469C76.6367 44.4922 77.4023 44.7148 78.5039 44.7148H79.2305V46.9531H78.5039C77.4023 46.9531 76.6367 47.1797 76.207 47.6328C75.7852 48.0859 75.5742 48.8984 75.5742 50.0703V52.5898C75.5742 54.3164 75.2461 55.4688 74.5898 56.0469C73.9414 56.625 72.6484 56.9141 70.7109 56.9141H68.9531V54.6758ZM108.633 53H97.7344V35.5039H108.633V38.5508H101.191V42.3242H107.93V45.3711H101.191V49.9531H108.633V53ZM125.695 35.5039H129.82L131.906 43.1797L133.98 35.5039H138.129V53H135.152V38.9844L133.301 46.6367H130.547L128.672 38.9844V53H125.695V35.5039ZM158.965 38.4102V43.543H160.383C161.516 43.543 162.309 43.3516 162.762 42.9688C163.223 42.5859 163.453 41.9219 163.453 40.9766C163.453 40.0312 163.223 39.3672 162.762 38.9844C162.309 38.6016 161.516 38.4102 160.383 38.4102H158.965ZM155.508 35.5039H160.254C162.668 35.5039 164.402 35.9336 165.457 36.793C166.52 37.6523 167.051 39.0469 167.051 40.9766C167.051 42.9062 166.52 44.3008 165.457 45.1602C164.402 46.0195 162.668 46.4492 160.254 46.4492H158.965V53H155.508V35.5039ZM189.75 38.293C188.867 38.293 188.223 38.7656 187.816 39.7109C187.41 40.6484 187.207 42.168 187.207 44.2695C187.207 46.3633 187.41 47.8828 187.816 48.8281C188.223 49.7656 188.867 50.2344 189.75 50.2344C190.641 50.2344 191.289 49.7656 191.695 48.8281C192.102 47.8828 192.305 46.3633 192.305 44.2695C192.305 42.168 192.102 40.6484 191.695 39.7109C191.289 38.7656 190.641 38.293 189.75 38.293ZM183.609 44.2695C183.609 41.2773 184.125 39.0156 185.156 37.4844C186.195 35.9531 187.727 35.1875 189.75 35.1875C191.781 35.1875 193.312 35.9531 194.344 37.4844C195.383 39.0156 195.902 41.2773 195.902 44.2695C195.902 47.2539 195.383 49.5117 194.344 51.043C193.312 52.5742 191.781 53.3398 189.75 53.3398C187.727 53.3398 186.195 52.5742 185.156 51.043C184.125 49.5117 183.609 47.2539 183.609 44.2695ZM220.91 44.7383C221.254 44.8086 221.551 44.9727 221.801 45.2305C222.059 45.4805 222.371 45.9727 222.738 46.707L225.902 53H222.105L219.996 48.582C219.934 48.457 219.852 48.2852 219.75 48.0664C219.133 46.7461 218.406 46.0859 217.57 46.0859H216.469V53H213.012V35.5039H218.004C220.254 35.5039 221.867 35.9023 222.844 36.6992C223.828 37.4961 224.32 38.793 224.32 40.5898C224.32 41.793 224.027 42.75 223.441 43.4609C222.855 44.1719 222.012 44.5977 220.91 44.7383ZM216.469 38.4102V43.1797H218.098C219.043 43.1797 219.719 42.9961 220.125 42.6289C220.539 42.2539 220.746 41.6406 220.746 40.7891C220.746 39.9375 220.543 39.3281 220.137 38.9609C219.73 38.5938 219.051 38.4102 218.098 38.4102H216.469ZM247.594 38.668L245.965 45.8281H249.234L247.594 38.668ZM245.484 35.5039H249.715L254.438 53H250.98L249.902 48.6758H245.273L244.219 53H240.762L245.484 35.5039ZM271.934 53V35.5039H275.391V49.9531H282.785V53H271.934Z" fill="#F3F4F6"/>
</svg>
